<svg xmlns="http://www.w3.org/2000/svg" xmlns:xlink="http://www.w3.org/1999/xlink" fill="none" version="1.1" width="117.44660186767578" height="58" viewBox="0 0 117.44660186767578 58"><g style="mix-blend-mode:passthrough"><g><g style="mix-blend-mode:passthrough"><g transform="matrix(0.9658327102661133,-0.2587940990924835,0.2587940990924835,0.9658327102661133,-4.749276084126905,0.6270231530070305)"><g style="mix-blend-mode:passthrough"><rect x="0" y="18.3515625" width="40.00385284423828" height="30.178346633911133" rx="4" fill="#DFE6FA" fill-opacity="1"/></g><g style="mix-blend-mode:passthrough"><path d="M7.019126125264648,40.11027270385742L32.77203179626465,40.11027270385742Q32.96923179626465,39.24329270385742,32.96923179626465,38.355052703857424Q32.96923179626465,37.96721270385742,32.931331796264644,37.58116270385742Q32.89333179626465,37.19512270385742,32.81773179626465,36.81441270385742Q32.742131796264644,36.433712703857424,32.62963179626465,36.061852703857426Q32.51713179626465,35.690002703857424,32.368831796264644,35.330432703857426Q32.22043179626465,34.97086270385742,32.037531796264645,34.62688270385742Q31.85463179626465,34.282902703857424,31.63893179626465,33.95768270385742Q31.42313179626465,33.63246270385742,31.176631796264648,33.32901270385742Q30.930031796264647,33.02555270385742,30.65493179626465,32.74665270385742Q30.367431796264647,32.455292703857424,30.051731796264647,32.19358270385742Q29.735931796264648,31.931882703857422,29.394931796264647,31.70247270385742Q29.05403179626465,31.473072703857422,28.69133179626465,31.278259703857422Q28.32863179626465,31.083450703857423,27.947831796264648,30.925199703857423Q27.567131796264647,30.766947703857422,27.172031796264648,30.646845703857423Q26.777031796264648,30.52674370385742,26.371631796264648,30.445997703857422Q25.966331796264647,30.36525260385742,25.554831796264647,30.324675903857422Q25.143231796264647,30.28409922385742,24.72963179626465,30.28409923385742Q24.399531796264647,30.28409923385742,24.07043179626465,30.30996410385742Q23.74143179626465,30.335828903857422,23.41553179626465,30.387392703857422Q23.089731796264648,30.43895670385742,22.76913179626465,30.51588870385742Q22.44843179626465,30.59282170385742,22.13513179626465,30.694629703857423Q21.821831796264647,30.79643770385742,21.517931796264648,30.922468703857422Q21.213931796264646,31.048499703857424,20.92123179626465,31.19794570385742Q20.62843179626465,31.347392703857423,20.34893179626465,31.51929270385742Q20.06933179626465,31.69120270385742,19.804731796264647,31.884452703857423Q19.54003179626465,32.07771270385742,19.29203179626465,32.29109270385742Q19.044031796264647,32.504472703857424,18.81423179626465,32.736592703857426Q18.58443179626465,32.96872270385742,18.37433179626465,33.21810270385742Q18.164231796264648,33.467492703857424,17.975231796264648,33.73254270385742Q17.786131796264648,33.99759270385742,17.619331796264646,34.27660270385742Q17.452531796264648,34.55562270385742,17.309031796264648,34.846812703857424Q17.16553179626465,35.13799270385742,17.04633179626465,35.439492703857425Q16.927091796264648,35.74099270385742,16.83286179626465,36.05087270385742Q16.43194179626465,35.72326270385742,15.979211796264648,35.468502703857425Q15.526491796264649,35.21374270385742,15.035611796264648,35.03951270385742Q14.54473179626465,34.86529270385742,14.030491796264648,34.77684270385742Q13.516241796264648,34.688392703857424,12.994131796264648,34.688392703857424Q12.693311796264648,34.688392703857424,12.393991796264649,34.71790270385742Q12.094681796264648,34.74741270385742,11.79989179626465,34.80614270385742Q11.505101796264649,34.86486270385742,11.217801796264649,34.95221270385742Q10.930491796264649,35.03956270385742,10.653561796264649,35.15465270385742Q10.376631796264649,35.269742703857425,10.11286179626465,35.411422703857426Q9.849091796264648,35.55310270385742,9.60113179626465,35.71994270385742Q9.353171796264649,35.88678270385742,9.123521796264649,36.07711270385742Q8.893871796264648,36.26744270385742,8.684831796264648,36.47934270385742Q8.323791796264649,36.845312703857424,8.032451796264649,37.26669270385742Q7.741111796264648,37.68807270385742,7.528155796264649,38.15227270385742Q7.315200796264649,38.61648270385742,7.186986796264648,39.109662703857424Q7.058772196264648,39.60283270385742,7.019126125264648,40.11027270385742Z" fill-rule="evenodd" fill="#B1C2F1" fill-opacity="1"/></g><g style="mix-blend-mode:passthrough"><ellipse cx="12.632796049118042" cy="28.87889289855957" rx="2.8072879314422607" ry="2.80728816986084" fill="#B1C2F1" fill-opacity="1"/></g></g></g><g style="mix-blend-mode:passthrough"><g transform="matrix(0.9659258127212524,0.258819043636322,-0.258819043636322,0.9659258127212524,4.755924407276325,-20.124824119440746)"><g style="mix-blend-mode:passthrough"><rect x="78.8095703125" y="8" width="40" height="30.175439834594727" rx="4" fill="#DFE6FA" fill-opacity="1"/></g><g style="mix-blend-mode:passthrough"><path d="M85.82993394332885,29.75404578277588L111.58071144332885,29.75404578277588Q111.77671144332885,28.88951578277588,111.77671144332885,28.00390578277588Q111.77671144332885,27.805795782775878,111.76681144332886,27.60792578277588Q111.75691144332886,27.410045782775878,111.73711144332886,27.21289578277588Q111.71721144332886,27.015735782775877,111.68761144332886,26.819765782775878Q111.65791144332886,26.62379578277588,111.61841144332885,26.42949578277588Q111.57901144332885,26.23518578277588,111.52981144332885,26.04301578277588Q111.48071144332886,25.850835782775878,111.42201144332886,25.66125578277588Q111.36331144332885,25.47167578277588,111.29511144332886,25.285145782775878Q111.22701144332886,25.09861578277588,111.14961144332887,24.915585782775878Q111.07221144332885,24.73255578277588,110.98571144332885,24.55346578277588Q110.89921144332885,24.37437578277588,110.80391144332886,24.199655782775878Q110.70861144332886,24.024935782775877,110.60461144332885,23.85500578277588Q110.50061144332886,23.68508578277588,110.38821144332886,23.52035578277588Q110.27591144332885,23.355635782775877,110.15541144332886,23.19650578277588Q110.03491144332887,23.03738578277588,109.90661144332886,22.884245782775878Q109.77831144332886,22.731095782775878,109.64251144332886,22.58430578277588Q109.50661144332886,22.43751578277588,109.36361144332886,22.297435782775878Q109.22061144332886,22.157345782775877,109.07081144332886,22.02430578277588Q108.92091144332886,21.89125578277588,108.76461144332886,21.76557578277588Q108.60821144332886,21.63989578277588,108.44581144332886,21.52188578277588Q108.28331144332886,21.403865782775878,108.11511144332886,21.29380578277588Q107.94701144332886,21.18373578277588,107.77351144332886,21.081885782775878Q107.60001144332885,20.98003578277588,107.42161144332886,20.886647782775878Q107.24331144332885,20.79325878277588,107.06041144332886,20.708554782775877Q106.87761144332886,20.62385178277588,106.69071144332887,20.54803778277588Q106.50391144332886,20.472223782775878,106.31351144332885,20.40548178277588Q106.12301144332886,20.33873978277588,105.92951144332886,20.28123078277588Q105.73591144332886,20.22372178277588,105.53981144332886,20.17558478277588Q105.34361144332885,20.127447782775878,105.14521144332886,20.088797782775877Q104.94681144332885,20.050148782775878,104.74681144332885,20.02107948277588Q104.54671144332886,19.99201048277588,104.34541144332886,19.97259208277588Q104.14411144332885,19.953173782775877,103.94211144332886,19.94345288277588Q103.74011144332886,19.93373203277588,103.53791144332885,19.93373203277588Q103.20791144332885,19.93373203277588,102.87891144332886,19.95958608277588Q102.55001144332886,19.98544018277588,102.22421144332885,20.03698278277588Q101.89841144332885,20.088524782775877,101.57791144332886,20.16542578277588Q101.25731144332886,20.24232678277588,100.94411144332886,20.344092782775878Q100.63091144332886,20.44585878277588,100.32701144332886,20.57183778277588Q100.02301144332885,20.69781778277588,99.73041144332886,20.84720378277588Q99.43771144332885,20.996585782775878,99.15821144332885,21.168425782775877Q98.87871144332885,21.34025578277588,98.61411144332885,21.53344578277588Q98.34951144332885,21.72662578277588,98.10151144332886,21.939915782775877Q97.85361144332886,22.153205782775878,97.62381144332886,22.38524578277588Q97.39411144332885,22.61728578277588,97.18401144332886,22.86657578277588Q96.97391144332886,23.11587578277588,96.78491144332885,23.38082578277588Q96.59581144332886,23.64577578277588,96.42901144332886,23.924695782775878Q96.26221144332885,24.20360578277588,96.11871144332886,24.494695782775878Q95.97521144332886,24.78578578277588,95.85591144332886,25.08718578277588Q95.73666144332886,25.388585782775877,95.64238144332886,25.69836578277588Q95.24151144332886,25.37079578277588,94.78884144332886,25.11607578277588Q94.33616144332886,24.86135578277588,93.84534144332886,24.68714578277588Q93.35452144332886,24.51294578277588,92.84033144332886,24.424505782775878Q92.32615144332885,24.33607578277588,91.80410144332886,24.33607578277588Q91.66422144332886,24.33607578277588,91.52448144332885,24.34246578277588Q91.38475144332885,24.348865782775878,91.24548144332886,24.361635782775878Q91.10620144332886,24.374415782775877,90.96769144332886,24.393535782775878Q90.82918144332886,24.41266578277588,90.69173144332886,24.438105782775878Q90.55427144332886,24.463535782775878,90.41818144332886,24.49523578277588Q90.28209144332885,24.52692578277588,90.14766144332886,24.564805782775878Q90.01323144332886,24.60267578277588,89.88075144332886,24.64666578277588Q89.74827144332886,24.690645782775878,89.61802144332886,24.74063578277588Q89.48778144332886,24.79062578277588,89.36006144332886,24.846515782775878Q89.23235144332885,24.90240578277588,89.10743144332886,24.96406578277588Q88.98251144332886,25.02573578277588,88.86067144332885,25.093045782775878Q88.73883144332886,25.16035578277588,88.62033144332885,25.233155782775878Q88.50182144332885,25.30595578277588,88.38692144332886,25.38410578277588Q88.27201144332886,25.46224578277588,88.16095144332886,25.545555782775878Q88.04990144332886,25.62886578277588,87.94293144332886,25.71715578277588Q87.83596144332886,25.80545578277588,87.73332144332886,25.89854578277588Q87.63067144332885,25.991625782775877,87.53257144332886,26.08930578277588Q87.43448144332886,26.186985782775878,87.34114144332885,26.28904578277588Q87.24780144332885,26.39110578277588,87.15943144332886,26.49731578277588Q87.07105144332886,26.60352578277588,86.98784144332886,26.71365578277588Q86.90462144332886,26.82379578277588,86.82673944332886,26.93761578277588Q86.74885944332885,27.05143578277588,86.67648744332885,27.168685782775878Q86.60411444332885,27.28594578277588,86.53740744332886,27.40637578277588Q86.47069944332885,27.526815782775877,86.40980244332886,27.65017578277588Q86.34890444332886,27.773525782775877,86.29395044332885,27.89952578277588Q86.23899644332886,28.02552578277588,86.19010444332886,28.15390578277588Q86.14121344332885,28.28228578277588,86.09849044332886,28.41275578277588Q86.05576844332886,28.543225782775878,86.01930844332885,28.67551578277588Q85.98284944332886,28.807795782775877,85.95273144332886,28.94160578277588Q85.92261294332886,29.07540578277588,85.89890234332886,29.210445782775878Q85.87519174332886,29.34548578277588,85.85794024332885,29.48145578277588Q85.84068874332885,29.61742578277588,85.82993394332885,29.75404578277588Z" fill-rule="evenodd" fill="#B1C2F1" fill-opacity="1"/></g><g style="mix-blend-mode:passthrough"><ellipse cx="91.44114899635315" cy="18.52631664276123" rx="2.8070175647735596" ry="2.8070178031921387" fill="#B1C2F1" fill-opacity="1"/></g></g></g><g style="mix-blend-mode:passthrough"><g><g style="mix-blend-mode:passthrough"><rect x="30" y="0" width="57" height="43" rx="4" fill="#EDF2FF" fill-opacity="1"/><rect x="31" y="1" width="55" height="41" rx="3" fill-opacity="0" stroke-opacity="1" stroke="#EDF2FF" stroke-width="2" fill="none" stroke-dasharray=""/></g><g style="mix-blend-mode:passthrough"><path d="M40.000392686,31L76.6951,31Q76.9759,29.7651,76.9759,28.5Q76.9759,28.2177,76.96170000000001,27.9357Q76.9476,27.6538,76.91929999999999,27.372799999999998Q76.8911,27.091900000000003,76.8488,26.8126Q76.8065,26.53335,76.75030000000001,26.25646Q76.69409999999999,25.97958,76.624,25.705730000000003Q76.554,25.43188,76.47030000000001,25.16173Q76.38669999999999,24.89157,76.28960000000001,24.62577Q76.1925,24.35996,76.0822,24.09914Q75.9719,23.83832,75.84870000000001,23.58312Q75.7255,23.32791,75.58959999999999,23.07894Q75.4537,22.82996,75.3056,22.58782Q75.1574,22.34567,74.9973,22.11094Q74.8372,21.87621,74.66550000000001,21.64946Q74.4938,21.422710000000002,74.3109,21.20448Q74.1281,20.98625,73.9345,20.777070000000002Q73.741,20.56789,73.5372,20.36827Q73.3334,20.16865,73.1199,19.97906Q72.9063,19.78947,72.68350000000001,19.61038Q72.4607,19.43128,72.22919999999999,19.26311Q71.9977,19.09494,71.7581,18.9381Q71.5185,18.78126,71.2713,18.63612Q71.0241,18.49098,70.7699,18.35791Q70.5157,18.22483,70.2552,18.10412Q69.99459999999999,17.98342,69.7283,17.875385Q69.46209999999999,17.76735,69.19069999999999,17.672243Q68.9194,17.577136,68.64359999999999,17.495186Q68.3678,17.413236,68.0882,17.34464Q67.8086,17.276045,67.52590000000001,17.220969Q67.2433,17.165893,66.9582,17.12447Q66.6731,17.0830468,66.3863,17.0553756Q66.0994,17.0277045,65.8116,17.0138523Q65.5237,17,65.2355,17Q65.0005,17,64.7656,17.00921501Q64.5307,17.01843,64.2964,17.0368453Q64.0622,17.0552605,63.8288,17.0828465Q63.5954,17.110432,63.3634,17.147145Q63.1314,17.183857,62.900999999999996,17.229638Q62.6707,17.275418,62.4424,17.330192Q62.2141,17.384967,61.9882,17.448648Q61.762299999999996,17.512329,61.5392,17.584814Q61.3161,17.6573,61.096199999999996,17.738474Q60.8762,17.819647,60.659800000000004,17.90938Q60.4433,17.999112,60.2307,18.09726Q60.018100000000004,18.1954,59.8096,18.30181Q59.6012,18.40821,59.3973,18.5227Q59.1933,18.63719,58.994299999999996,18.75959Q58.7952,18.88198,58.601299999999995,19.01208Q58.4073,19.14218,58.218900000000005,19.27978Q58.0304,19.41738,57.8478,19.56225Q57.665099999999995,19.70713,57.4885,19.85905Q57.3119,20.01097,57.1416,20.1697Q56.9713,20.32842,56.8077,20.4937Q56.6441,20.65897,56.487300000000005,20.83053Q56.3305,21.00208,56.1809,21.17965Q56.0313,21.357210000000002,55.8891,21.5405Q55.7468,21.723779999999998,55.6122,21.9125Q55.4775,22.101219999999998,55.3507,22.29506Q55.2239,22.48891,55.1051,22.68757Q54.9863,22.88623,54.8757,23.08939Q54.765100000000004,23.29255,54.6629,23.49988Q54.5607,23.70721,54.4671,23.91839Q54.373400000000004,24.129559999999998,54.2885,24.34424Q54.2036,24.55891,54.1275,24.77674Q54.0514,24.99458,53.9842,25.215220000000002Q53.6991,24.982210000000002,53.3945,24.77432Q53.0898,24.56643,52.7678,24.38524Q52.4459,24.20404,52.1091,24.050910000000002Q51.7723,23.89777,51.4232,23.77385Q51.0741,23.64993,50.7154,23.55617Q50.3566,23.4624,49.990880000000004,23.39949Q49.62517,23.336579999999998,49.255269999999996,23.30501Q48.88536,23.27344,48.51405,23.27344Q48.31462,23.27344,48.11541,23.28256Q47.91619,23.29168,47.71763,23.3099Q47.51907,23.32812,47.321600000000004,23.3554Q47.12412,23.38268,46.92817,23.41896Q46.73221,23.45525,46.53819,23.50045Q46.34417,23.545659999999998,46.15252,23.59968Q45.96087,23.65371,45.77201,23.71644Q45.58314,23.77918,45.39747,23.85048Q45.2118,23.92178,45.02973,24.0015Q44.84766,24.08121,44.66959,24.16917Q44.49152,24.25712,44.317840000000004,24.35313Q44.144149999999996,24.44913,43.975229999999996,24.552970000000002Q43.806309999999996,24.65681,43.64253,24.768259999999998Q43.47874,24.87972,43.32045,24.99854Q43.16215,25.117359999999998,43.00969,25.243290000000002Q42.85724,25.36922,42.71095,25.50198Q42.56466,25.63475,42.42485,25.77406Q42.28505,25.91337,42.15204,26.05892Q42.01903,26.20448,41.8931,26.35595Q41.76718,26.50743,41.64861,26.6645Q41.53004,26.82157,41.41908,26.983890000000002Q41.30813,27.1462,41.20503,27.3134Q41.10193,27.480600000000003,41.00692,27.6524Q40.911905,27.824199999999998,40.825181,28.0001Q40.738457,28.176000000000002,40.660212,28.3557Q40.581968,28.5353,40.512372,28.718400000000003Q40.442777,28.9015,40.381983,29.0875Q40.321189,29.273600000000002,40.269329,29.4622Q40.21747,29.6508,40.174657,29.8416Q40.131844,30.032400000000003,40.0981721,30.224899999999998Q40.0645,30.4175,40.0400418,30.6114Q40.0155836,30.8052,40.000392686,31Z" fill-rule="evenodd" fill="#B8C7F0" fill-opacity="1"/></g><g style="mix-blend-mode:passthrough"><ellipse cx="48" cy="15" rx="4" ry="4" fill="#B8C7F0" fill-opacity="1"/></g></g></g><g style="mix-blend-mode:passthrough"><g><g style="mix-blend-mode:passthrough"><ellipse cx="58" cy="46" rx="12" ry="12" fill="#FFFFFF" fill-opacity="1"/></g><g style="mix-blend-mode:passthrough"><ellipse cx="58" cy="46" rx="10" ry="10" fill="#EDF2FF" fill-opacity="1"/></g><g style="mix-blend-mode:passthrough"><path d="M58,40C57.447720000000004,40,57,40.447715,57,41L57,44.5L53.5,44.5C52.947715,44.5,52.5,44.947720000000004,52.5,45.5C52.5,46.052279999999996,52.947715,46.5,53.5,46.5L57,46.5L57,50C57,50.5523,57.447720000000004,51,58,51C58.552279999999996,51,59,50.5523,59,50L59,46.5L62.5,46.5C63.0523,46.5,63.5,46.052279999999996,63.5,45.5C63.5,44.947720000000004,63.0523,44.5,62.5,44.5L59,44.5L59,41C59,40.447715,58.552279999999996,40,58,40Z" fill-rule="evenodd" fill="#B8C7F0" fill-opacity="1"/></g></g></g></g></g></svg>