<svg width="24" height="24" viewBox="0 0 24 24" fill="none" xmlns="http://www.w3.org/2000/svg">
<circle cx="12" cy="12" r="10" stroke="black" stroke-width="2"/>
<path d="M8.75055 9.376H10.8626C10.8626 8.432 11.4386 7.872 12.4146 7.872C13.3586 7.872 13.9346 8.448 13.9346 9.376C13.9506 10.816 12.7026 11.12 11.0386 11.12H10.3186L10.3986 13.84H12.3666L12.4306 12.608C14.5586 12.608 16.1106 11.552 16.1106 9.392C16.1106 7.232 14.5906 6 12.4146 6C10.0786 6 8.71855 7.44 8.75055 9.376ZM12.7346 16.352C12.7346 15.616 12.1586 15.04 11.3746 15.04C10.5586 15.04 9.98255 15.616 9.98255 16.352C9.98255 17.088 10.5586 17.664 11.3746 17.664C12.1586 17.664 12.7346 17.088 12.7346 16.352Z" fill="black"/>
</svg>

