<svg width="24" height="24" viewBox="0 0 24 24" fill="none" xmlns="http://www.w3.org/2000/svg">
<path d="M11.101 22C9.37923 22 7.68602 21.5643 6.18218 20.7342C4.67833 19.9042 3.41377 18.7073 2.50858 17.2573C1.60338 15.8073 1.0876 14.1523 1.01021 12.4495C0.932819 10.7466 1.29639 9.05248 2.06639 7.52787C2.8364 6.00326 3.98728 4.69881 5.40975 3.7384C6.83222 2.77799 8.47906 2.19349 10.1939 2.04041C11.9087 1.88733 13.6346 2.17075 15.2077 2.86376C16.7807 3.55676 18.1487 4.63635 19.1818 6H16.4444C15.2781 4.98167 13.8397 4.31814 12.3019 4.08906C10.7641 3.85998 9.19215 4.07506 7.77474 4.7085C6.35734 5.34194 5.15467 6.36683 4.31104 7.66019C3.46742 8.95354 3.01869 10.4604 3.01869 12C3.01869 13.5396 3.46742 15.0465 4.31104 16.3398C5.15467 17.6332 6.35734 18.6581 7.77474 19.2915C9.19215 19.9249 10.7641 20.14 12.3019 19.9109C13.8397 19.6819 15.2781 19.0183 16.4444 18H19.1818C18.2418 19.2428 17.0219 20.2515 15.6191 20.9459C14.2164 21.6402 12.6693 22.0012 11.101 22V22ZM18.1717 16V13H10.0909V11H18.1717V8L23.2222 12L18.1717 16Z" fill="black"/>
</svg>
