<svg width="373" height="437" viewBox="0 0 373 437" fill="none" xmlns="http://www.w3.org/2000/svg">
<path d="M24.952 392.164H28.3V403H30.352V392.164H33.682V390.49H24.952V392.164ZM45.2102 398.032C45.2102 394.918 42.9782 392.92 40.1522 392.92C37.3262 392.92 35.0942 394.918 35.0942 398.032C35.0942 401.146 37.2362 403.162 40.0622 403.162C42.9062 403.162 45.2102 401.146 45.2102 398.032ZM37.1822 398.032C37.1822 395.782 38.5682 394.702 40.1162 394.702C41.6462 394.702 43.1042 395.782 43.1042 398.032C43.1042 400.282 41.5922 401.38 40.0622 401.38C38.5142 401.38 37.1822 400.282 37.1822 398.032ZM59.3125 400.228C59.2045 396.646 53.6065 397.762 53.6065 395.764C53.6065 395.098 54.1825 394.648 55.2805 394.648C56.3965 394.648 57.0625 395.242 57.1345 396.106H59.1865C59.0785 394.126 57.6025 392.92 55.3525 392.92C53.0125 392.92 51.5365 394.198 51.5365 395.782C51.5365 399.418 57.2965 398.302 57.2965 400.246C57.2965 400.93 56.6665 401.434 55.4785 401.434C54.3445 401.434 53.5705 400.768 53.4985 399.958H51.3745C51.4645 401.758 53.1385 403.162 55.5145 403.162C57.8545 403.162 59.3125 401.902 59.3125 400.228ZM60.8457 398.032C60.8457 401.146 62.8617 403.162 65.7057 403.162C68.1357 403.162 69.7197 401.812 70.2777 399.868H68.0637C67.6857 400.894 66.9297 401.434 65.7057 401.434C64.0497 401.434 62.9517 400.21 62.9517 398.032C62.9517 395.872 64.0497 394.648 65.7057 394.648C66.9297 394.648 67.7217 395.26 68.0637 396.214H70.2777C69.7197 394.126 68.1357 392.92 65.7057 392.92C62.8617 392.92 60.8457 394.936 60.8457 398.032ZM72.3227 403H74.3747V397.456C74.3747 395.638 75.3647 394.702 76.8767 394.702C78.3707 394.702 79.3607 395.638 79.3607 397.456V403H81.3947V397.15C81.3947 394.378 79.6667 392.92 77.4527 392.92C76.1747 392.92 75.0587 393.406 74.3747 394.234V389.68H72.3227V403ZM88.1881 394.648C89.7181 394.648 90.9241 395.62 90.9601 397.15H85.4701C85.6861 395.584 86.8021 394.648 88.1881 394.648ZM92.8321 400.048H90.6181C90.2401 400.822 89.5381 401.434 88.2781 401.434C86.7661 401.434 85.5961 400.444 85.4521 398.806H93.0301C93.0841 398.464 93.1021 398.14 93.1021 397.798C93.1021 394.882 91.1041 392.92 88.2781 392.92C85.3441 392.92 83.3281 394.918 83.3281 398.032C83.3281 401.146 85.4341 403.162 88.2781 403.162C90.7081 403.162 92.2741 401.776 92.8321 400.048ZM94.4375 397.996C94.4375 401.056 96.5075 403.162 99.1175 403.162C100.737 403.162 101.925 402.406 102.555 401.506V403H104.625V389.68H102.555V394.468C101.799 393.532 100.431 392.92 99.1355 392.92C96.5075 392.92 94.4375 394.936 94.4375 397.996ZM102.555 398.032C102.555 400.174 101.097 401.38 99.5495 401.38C98.0195 401.38 96.5435 400.138 96.5435 397.996C96.5435 395.854 98.0195 394.702 99.5495 394.702C101.097 394.702 102.555 395.908 102.555 398.032ZM116.303 393.082H114.251V398.608C114.251 400.426 113.261 401.362 111.749 401.362C110.255 401.362 109.265 400.426 109.265 398.608V393.082H107.231V398.914C107.231 401.686 108.995 403.144 111.317 403.144C112.487 403.144 113.603 402.658 114.251 401.812V403H116.303V393.082ZM119.01 403H121.062V389.68H119.01V403ZM127.932 394.648C129.462 394.648 130.668 395.62 130.704 397.15H125.214C125.43 395.584 126.546 394.648 127.932 394.648ZM132.576 400.048H130.362C129.984 400.822 129.282 401.434 128.022 401.434C126.51 401.434 125.34 400.444 125.196 398.806H132.774C132.828 398.464 132.846 398.14 132.846 397.798C132.846 394.882 130.848 392.92 128.022 392.92C125.088 392.92 123.072 394.918 123.072 398.032C123.072 401.146 125.178 403.162 128.022 403.162C130.452 403.162 132.018 401.776 132.576 400.048ZM138.857 397.996C138.857 401.056 140.927 403.162 143.501 403.162C145.157 403.162 146.345 402.37 146.975 401.524V403H149.045V393.082H146.975V394.522C146.363 393.712 145.211 392.92 143.537 392.92C140.927 392.92 138.857 394.936 138.857 397.996ZM146.975 398.032C146.975 400.174 145.517 401.38 143.969 401.38C142.439 401.38 140.963 400.138 140.963 397.996C140.963 395.854 142.439 394.702 143.969 394.702C145.517 394.702 146.975 395.908 146.975 398.032ZM155.732 398.032C155.732 401.146 157.748 403.162 160.592 403.162C163.022 403.162 164.606 401.812 165.164 399.868H162.95C162.572 400.894 161.816 401.434 160.592 401.434C158.936 401.434 157.838 400.21 157.838 398.032C157.838 395.872 158.936 394.648 160.592 394.648C161.816 394.648 162.608 395.26 162.95 396.214H165.164C164.606 394.126 163.022 392.92 160.592 392.92C157.748 392.92 155.732 394.936 155.732 398.032ZM166.525 397.996C166.525 401.056 168.595 403.162 171.169 403.162C172.825 403.162 174.013 402.37 174.643 401.524V403H176.713V393.082H174.643V394.522C174.031 393.712 172.879 392.92 171.205 392.92C168.595 392.92 166.525 394.936 166.525 397.996ZM174.643 398.032C174.643 400.174 173.185 401.38 171.637 401.38C170.107 401.38 168.631 400.138 168.631 397.996C168.631 395.854 170.107 394.702 171.637 394.702C173.185 394.702 174.643 395.908 174.643 398.032ZM193.467 403H195.501V397.15C195.501 394.378 193.737 392.92 191.415 392.92C189.975 392.92 188.571 393.676 187.959 394.882C187.275 393.586 185.961 392.92 184.395 392.92C183.207 392.92 182.127 393.406 181.461 394.216V393.082H179.409V403H181.461V397.456C181.461 395.638 182.451 394.702 183.963 394.702C185.457 394.702 186.447 395.638 186.447 397.456V403H188.481V397.456C188.481 395.638 189.471 394.702 190.983 394.702C192.477 394.702 193.467 395.638 193.467 397.456V403ZM200.164 394.54V393.082H198.112V407.716H200.164V401.56C200.812 402.334 201.982 403.162 203.62 403.162C206.23 403.162 208.282 401.056 208.282 397.996C208.282 394.936 206.23 392.92 203.62 392.92C202 392.92 200.794 393.712 200.164 394.54ZM206.194 397.996C206.194 400.138 204.718 401.38 203.17 401.38C201.64 401.38 200.164 400.174 200.164 398.032C200.164 395.908 201.64 394.702 203.17 394.702C204.718 394.702 206.194 395.854 206.194 397.996ZM209.627 397.996C209.627 401.056 211.697 403.162 214.271 403.162C215.927 403.162 217.115 402.37 217.745 401.524V403H219.815V393.082H217.745V394.522C217.133 393.712 215.981 392.92 214.307 392.92C211.697 392.92 209.627 394.936 209.627 397.996ZM217.745 398.032C217.745 400.174 216.287 401.38 214.739 401.38C213.209 401.38 211.733 400.138 211.733 397.996C211.733 395.854 213.209 394.702 214.739 394.702C216.287 394.702 217.745 395.908 217.745 398.032ZM222.51 403H224.562V393.082H222.51V403ZM223.554 391.768C224.274 391.768 224.85 391.192 224.85 390.454C224.85 389.716 224.274 389.14 223.554 389.14C222.816 389.14 222.24 389.716 222.24 390.454C222.24 391.192 222.816 391.768 223.554 391.768ZM226.572 397.996C226.572 401.056 228.642 403.162 231.252 403.162C232.872 403.162 234.06 402.352 234.69 401.506V403.162C234.69 405.142 233.502 406.114 231.918 406.114C230.496 406.114 229.398 405.412 229.092 404.386H227.058C227.31 406.582 229.272 407.896 231.918 407.896C235.014 407.896 236.76 405.862 236.76 403.162V393.082H234.69V394.522C234.078 393.676 232.872 392.92 231.252 392.92C228.642 392.92 226.572 394.936 226.572 397.996ZM234.69 398.032C234.69 400.174 233.232 401.38 231.684 401.38C230.154 401.38 228.678 400.138 228.678 397.996C228.678 395.854 230.154 394.702 231.684 394.702C233.232 394.702 234.69 395.908 234.69 398.032ZM246.493 403H248.527V397.15C248.527 394.378 246.781 392.92 244.459 392.92C243.271 392.92 242.173 393.406 241.507 394.216V393.082H239.455V403H241.507V397.456C241.507 395.638 242.497 394.702 244.009 394.702C245.503 394.702 246.493 395.638 246.493 397.456V403ZM259.727 400.642L256.937 393.082H254.651L258.557 402.838L256.541 407.662H258.665L264.749 393.082H262.625L259.727 400.642ZM275.747 398.032C275.747 394.918 273.515 392.92 270.689 392.92C267.863 392.92 265.631 394.918 265.631 398.032C265.631 401.146 267.773 403.162 270.599 403.162C273.443 403.162 275.747 401.146 275.747 398.032ZM267.719 398.032C267.719 395.782 269.105 394.702 270.653 394.702C272.183 394.702 273.641 395.782 273.641 398.032C273.641 400.282 272.129 401.38 270.599 401.38C269.051 401.38 267.719 400.282 267.719 398.032ZM286.758 393.082H284.706V398.608C284.706 400.426 283.716 401.362 282.204 401.362C280.71 401.362 279.72 400.426 279.72 398.608V393.082H277.686V398.914C277.686 401.686 279.45 403.144 281.772 403.144C282.942 403.144 284.058 402.658 284.706 401.812V403H286.758V393.082ZM301.179 403H303.213V397.15C303.213 394.378 301.467 392.92 299.145 392.92C297.957 392.92 296.859 393.406 296.193 394.216V393.082H294.141V403H296.193V397.456C296.193 395.638 297.183 394.702 298.695 394.702C300.189 394.702 301.179 395.638 301.179 397.456V403ZM310.006 394.648C311.536 394.648 312.742 395.62 312.778 397.15H307.288C307.504 395.584 308.62 394.648 310.006 394.648ZM314.65 400.048H312.436C312.058 400.822 311.356 401.434 310.096 401.434C308.584 401.434 307.414 400.444 307.27 398.806H314.848C314.902 398.464 314.92 398.14 314.92 397.798C314.92 394.882 312.922 392.92 310.096 392.92C307.162 392.92 305.146 394.918 305.146 398.032C305.146 401.146 307.252 403.162 310.096 403.162C312.526 403.162 314.092 401.776 314.65 400.048ZM321.116 394.648C322.646 394.648 323.852 395.62 323.888 397.15H318.398C318.614 395.584 319.73 394.648 321.116 394.648ZM325.76 400.048H323.546C323.168 400.822 322.466 401.434 321.206 401.434C319.694 401.434 318.524 400.444 318.38 398.806H325.958C326.012 398.464 326.03 398.14 326.03 397.798C326.03 394.882 324.032 392.92 321.206 392.92C318.272 392.92 316.256 394.918 316.256 398.032C316.256 401.146 318.362 403.162 321.206 403.162C323.636 403.162 325.202 401.776 325.76 400.048ZM327.365 397.996C327.365 401.056 329.435 403.162 332.045 403.162C333.665 403.162 334.853 402.406 335.483 401.506V403H337.553V389.68H335.483V394.468C334.727 393.532 333.359 392.92 332.063 392.92C329.435 392.92 327.365 394.936 327.365 397.996ZM335.483 398.032C335.483 400.174 334.025 401.38 332.477 401.38C330.947 401.38 329.471 400.138 329.471 397.996C329.471 395.854 330.947 394.702 332.477 394.702C334.025 394.702 335.483 395.908 335.483 398.032ZM345.248 400.246C345.248 402.262 346.346 403 348.11 403H349.73V401.29H348.47C347.606 401.29 347.318 400.984 347.318 400.246V394.756H349.73V393.082H347.318V390.616H345.248V393.082H344.078V394.756H345.248V400.246ZM361.071 398.032C361.071 394.918 358.839 392.92 356.013 392.92C353.187 392.92 350.955 394.918 350.955 398.032C350.955 401.146 353.097 403.162 355.923 403.162C358.767 403.162 361.071 401.146 361.071 398.032ZM353.043 398.032C353.043 395.782 354.429 394.702 355.977 394.702C357.507 394.702 358.965 395.782 358.965 398.032C358.965 400.282 357.453 401.38 355.923 401.38C354.375 401.38 353.043 400.282 353.043 398.032ZM85.2969 424.996C85.2969 428.056 87.3669 430.162 89.9769 430.162C91.5969 430.162 92.7849 429.352 93.4149 428.506V430.162C93.4149 432.142 92.2269 433.114 90.6429 433.114C89.2209 433.114 88.1229 432.412 87.8169 431.386H85.7829C86.0349 433.582 87.9969 434.896 90.6429 434.896C93.7389 434.896 95.4849 432.862 95.4849 430.162V420.082H93.4149V421.522C92.8029 420.676 91.5969 419.92 89.9769 419.92C87.3669 419.92 85.2969 421.936 85.2969 424.996ZM93.4149 425.032C93.4149 427.174 91.9569 428.38 90.4089 428.38C88.8789 428.38 87.4029 427.138 87.4029 424.996C87.4029 422.854 88.8789 421.702 90.4089 421.702C91.9569 421.702 93.4149 422.908 93.4149 425.032ZM107.63 425.032C107.63 421.918 105.398 419.92 102.572 419.92C99.7461 419.92 97.5141 421.918 97.5141 425.032C97.5141 428.146 99.6561 430.162 102.482 430.162C105.326 430.162 107.63 428.146 107.63 425.032ZM99.6021 425.032C99.6021 422.782 100.988 421.702 102.536 421.702C104.066 421.702 105.524 422.782 105.524 425.032C105.524 427.282 104.012 428.38 102.482 428.38C100.934 428.38 99.6021 427.282 99.6021 425.032ZM114.658 427.246C114.658 429.262 115.756 430 117.52 430H119.14V428.29H117.88C117.016 428.29 116.728 427.984 116.728 427.246V421.756H119.14V420.082H116.728V417.616H114.658V420.082H113.488V421.756H114.658V427.246ZM130.482 425.032C130.482 421.918 128.25 419.92 125.424 419.92C122.598 419.92 120.366 421.918 120.366 425.032C120.366 428.146 122.508 430.162 125.334 430.162C128.178 430.162 130.482 428.146 130.482 425.032ZM122.454 425.032C122.454 422.782 123.84 421.702 125.388 421.702C126.918 421.702 128.376 422.782 128.376 425.032C128.376 427.282 126.864 428.38 125.334 428.38C123.786 428.38 122.454 427.282 122.454 425.032ZM136.502 425.032C136.502 428.146 138.518 430.162 141.362 430.162C143.792 430.162 145.376 428.812 145.934 426.868H143.72C143.342 427.894 142.586 428.434 141.362 428.434C139.706 428.434 138.608 427.21 138.608 425.032C138.608 422.872 139.706 421.648 141.362 421.648C142.586 421.648 143.378 422.26 143.72 423.214H145.934C145.376 421.126 143.792 419.92 141.362 419.92C138.518 419.92 136.502 421.936 136.502 425.032ZM147.295 424.996C147.295 428.056 149.365 430.162 151.939 430.162C153.595 430.162 154.783 429.37 155.413 428.524V430H157.483V420.082H155.413V421.522C154.801 420.712 153.649 419.92 151.975 419.92C149.365 419.92 147.295 421.936 147.295 424.996ZM155.413 425.032C155.413 427.174 153.955 428.38 152.407 428.38C150.877 428.38 149.401 427.138 149.401 424.996C149.401 422.854 150.877 421.702 152.407 421.702C153.955 421.702 155.413 422.908 155.413 425.032ZM174.236 430H176.27V424.15C176.27 421.378 174.506 419.92 172.184 419.92C170.744 419.92 169.34 420.676 168.728 421.882C168.044 420.586 166.73 419.92 165.164 419.92C163.976 419.92 162.896 420.406 162.23 421.216V420.082H160.178V430H162.23V424.456C162.23 422.638 163.22 421.702 164.732 421.702C166.226 421.702 167.216 422.638 167.216 424.456V430H169.25V424.456C169.25 422.638 170.24 421.702 171.752 421.702C173.246 421.702 174.236 422.638 174.236 424.456V430ZM180.933 421.54V420.082H178.881V434.716H180.933V428.56C181.581 429.334 182.751 430.162 184.389 430.162C186.999 430.162 189.051 428.056 189.051 424.996C189.051 421.936 186.999 419.92 184.389 419.92C182.769 419.92 181.563 420.712 180.933 421.54ZM186.963 424.996C186.963 427.138 185.487 428.38 183.939 428.38C182.409 428.38 180.933 427.174 180.933 425.032C180.933 422.908 182.409 421.702 183.939 421.702C185.487 421.702 186.963 422.854 186.963 424.996ZM190.396 424.996C190.396 428.056 192.466 430.162 195.04 430.162C196.696 430.162 197.884 429.37 198.514 428.524V430H200.584V420.082H198.514V421.522C197.902 420.712 196.75 419.92 195.076 419.92C192.466 419.92 190.396 421.936 190.396 424.996ZM198.514 425.032C198.514 427.174 197.056 428.38 195.508 428.38C193.978 428.38 192.502 427.138 192.502 424.996C192.502 422.854 193.978 421.702 195.508 421.702C197.056 421.702 198.514 422.908 198.514 425.032ZM203.28 430H205.332V420.082H203.28V430ZM204.324 418.768C205.044 418.768 205.62 418.192 205.62 417.454C205.62 416.716 205.044 416.14 204.324 416.14C203.586 416.14 203.01 416.716 203.01 417.454C203.01 418.192 203.586 418.768 204.324 418.768ZM207.342 424.996C207.342 428.056 209.412 430.162 212.022 430.162C213.642 430.162 214.83 429.352 215.46 428.506V430.162C215.46 432.142 214.272 433.114 212.688 433.114C211.266 433.114 210.168 432.412 209.862 431.386H207.828C208.08 433.582 210.042 434.896 212.688 434.896C215.784 434.896 217.53 432.862 217.53 430.162V420.082H215.46V421.522C214.848 420.676 213.642 419.92 212.022 419.92C209.412 419.92 207.342 421.936 207.342 424.996ZM215.46 425.032C215.46 427.174 214.002 428.38 212.454 428.38C210.924 428.38 209.448 427.138 209.448 424.996C209.448 422.854 210.924 421.702 212.454 421.702C214.002 421.702 215.46 422.908 215.46 425.032ZM227.263 430H229.297V424.15C229.297 421.378 227.551 419.92 225.229 419.92C224.041 419.92 222.943 420.406 222.277 421.216V420.082H220.225V430H222.277V424.456C222.277 422.638 223.267 421.702 224.779 421.702C226.273 421.702 227.263 422.638 227.263 424.456V430ZM243.988 427.228C243.88 423.646 238.282 424.762 238.282 422.764C238.282 422.098 238.858 421.648 239.956 421.648C241.072 421.648 241.738 422.242 241.81 423.106H243.862C243.754 421.126 242.278 419.92 240.028 419.92C237.688 419.92 236.212 421.198 236.212 422.782C236.212 426.418 241.972 425.302 241.972 427.246C241.972 427.93 241.342 428.434 240.154 428.434C239.02 428.434 238.246 427.768 238.174 426.958H236.05C236.14 428.758 237.814 430.162 240.19 430.162C242.53 430.162 243.988 428.902 243.988 427.228ZM250.381 421.648C251.911 421.648 253.117 422.62 253.153 424.15H247.663C247.879 422.584 248.995 421.648 250.381 421.648ZM255.025 427.048H252.811C252.433 427.822 251.731 428.434 250.471 428.434C248.959 428.434 247.789 427.444 247.645 425.806H255.223C255.277 425.464 255.295 425.14 255.295 424.798C255.295 421.882 253.297 419.92 250.471 419.92C247.537 419.92 245.521 421.918 245.521 425.032C245.521 428.146 247.627 430.162 250.471 430.162C252.901 430.162 254.467 428.776 255.025 427.048ZM256.631 425.032C256.631 428.146 258.647 430.162 261.491 430.162C263.921 430.162 265.505 428.812 266.063 426.868H263.849C263.471 427.894 262.715 428.434 261.491 428.434C259.835 428.434 258.737 427.21 258.737 425.032C258.737 422.872 259.835 421.648 261.491 421.648C262.715 421.648 263.507 422.26 263.849 423.214H266.063C265.505 421.126 263.921 419.92 261.491 419.92C258.647 419.92 256.631 421.936 256.631 425.032ZM268.432 427.246C268.432 429.262 269.53 430 271.294 430H272.914V428.29H271.654C270.79 428.29 270.502 427.984 270.502 427.246V421.756H272.914V420.082H270.502V417.616H268.432V420.082H267.262V421.756H268.432V427.246ZM274.805 430H276.857V420.082H274.805V430ZM275.849 418.768C276.569 418.768 277.145 418.192 277.145 417.454C277.145 416.716 276.569 416.14 275.849 416.14C275.111 416.14 274.535 416.716 274.535 417.454C274.535 418.192 275.111 418.768 275.849 418.768ZM289.001 425.032C289.001 421.918 286.769 419.92 283.943 419.92C281.117 419.92 278.885 421.918 278.885 425.032C278.885 428.146 281.027 430.162 283.853 430.162C286.697 430.162 289.001 428.146 289.001 425.032ZM280.973 425.032C280.973 422.782 282.359 421.702 283.907 421.702C285.437 421.702 286.895 422.782 286.895 425.032C286.895 427.282 285.383 428.38 283.853 428.38C282.305 428.38 280.973 427.282 280.973 425.032ZM298.068 430H300.102V424.15C300.102 421.378 298.356 419.92 296.034 419.92C294.846 419.92 293.748 420.406 293.082 421.216V420.082H291.03V430H293.082V424.456C293.082 422.638 294.072 421.702 295.584 421.702C297.078 421.702 298.068 422.638 298.068 424.456V430Z" fill="#012C53"/>
<path d="M89.3608 0.216797H11.9648V69.4582H89.3608V0.216797Z" fill="#FAFAFA"/>
<path d="M89.4009 69.4509C89.4009 69.4509 89.4009 69.0077 89.4009 68.1616C89.4009 67.3155 89.4009 66.0746 89.4009 64.455C89.4009 61.2318 89.4009 56.4535 89.3525 50.4021C89.3525 38.3152 89.3042 21.015 89.2639 0.201447L89.4412 0.378718H12.0855L12.2869 0.169215C12.2869 25.3662 12.2869 49.0725 12.2869 69.4186L12.1097 69.2333L68.0878 69.33L83.7604 69.4509H87.9424H89.0221H87.9504H83.8087L68.0555 69.4992L11.9646 69.5879H11.7793V69.4509C11.7793 49.1047 11.7793 25.3984 11.7793 0.201447V0H11.9969H89.3525H89.5298V0.169215C89.5298 21.023 89.4573 38.3555 89.4412 50.4746C89.4412 56.5099 89.4009 61.248 89.3928 64.4953C89.3928 66.1069 89.3928 67.3317 89.3928 68.1697C89.3928 69.0077 89.4009 69.4509 89.4009 69.4509Z" fill="#E0E0E0"/>
<path d="M41.6417 12.5218C41.6417 12.6426 37.5644 12.7313 32.5444 12.7313C27.5243 12.7313 23.439 12.6426 23.439 12.5218C23.439 12.4009 27.5163 12.3203 32.5444 12.3203C37.5725 12.3203 41.6417 12.4089 41.6417 12.5218Z" fill="#E0E0E0"/>
<path d="M74.4374 17.7271C74.4374 17.8399 63.245 17.9285 49.4579 17.9285C35.6709 17.9285 24.4785 17.8399 24.4785 17.7271C24.4785 17.6143 35.6629 17.5176 49.4579 17.5176C63.253 17.5176 74.4374 17.6062 74.4374 17.7271Z" fill="#E0E0E0"/>
<path d="M26.8396 26.5342H23.5762V29.7976H26.8396V26.5342Z" fill="#E0E0E0"/>
<path d="M34.8655 26.5342H31.6021V29.7976H34.8655V26.5342Z" fill="#E0E0E0"/>
<path d="M43.0442 26.3818H39.7808V29.6453H43.0442V26.3818Z" fill="#E0E0E0"/>
<path d="M50.9168 26.5342H47.6533V29.7976H50.9168V26.5342Z" fill="#E0E0E0"/>
<path d="M58.9421 26.5342H55.6787V29.7976H58.9421V26.5342Z" fill="#E0E0E0"/>
<path d="M66.9758 26.5342H63.7124V29.7976H66.9758V26.5342Z" fill="#E0E0E0"/>
<path d="M75.0012 26.5342H71.7378V29.7976H75.0012V26.5342Z" fill="#EBEBEB"/>
<path d="M26.8396 33.4648H23.5762V36.7283H26.8396V33.4648Z" fill="#EBEBEB"/>
<path d="M34.8655 33.4648H31.6021V36.7283H34.8655V33.4648Z" fill="#E0E0E0"/>
<path d="M42.8909 33.4648H39.6274V36.7283H42.8909V33.4648Z" fill="#EBEBEB"/>
<path d="M50.9168 33.4648H47.6533V36.7283H50.9168V33.4648Z" fill="#E0E0E0"/>
<path d="M58.9421 33.4648H55.6787V36.7283H58.9421V33.4648Z" fill="#E0E0E0"/>
<path d="M67.1209 33.3115H63.8574V36.575H67.1209V33.3115Z" fill="#E0E0E0"/>
<path d="M75.0012 33.4648H71.7378V36.7283H75.0012V33.4648Z" fill="#E0E0E0"/>
<path d="M26.8396 40.3945H23.5762V43.658H26.8396V40.3945Z" fill="#E0E0E0"/>
<path d="M35.0183 40.249H31.7549V43.5125H35.0183V40.249Z" fill="#E0E0E0"/>
<path d="M42.8909 40.3945H39.6274V43.658H42.8909V40.3945Z" fill="#E0E0E0"/>
<path d="M50.9168 40.3945H47.6533V43.658H50.9168V40.3945Z" fill="#EBEBEB"/>
<path d="M58.9421 40.3945H55.6787V43.658H58.9421V40.3945Z" fill="#E0E0E0"/>
<path d="M66.9758 40.3945H63.7124V43.658H66.9758V40.3945Z" fill="#E0E0E0"/>
<path d="M75.0012 40.3945H71.7378V43.658H75.0012V40.3945Z" fill="#E0E0E0"/>
<path d="M26.8396 47.3242H23.5762V50.5877H26.8396V47.3242Z" fill="#E0E0E0"/>
<path d="M34.8655 47.3242H31.6021V50.5877H34.8655V47.3242Z" fill="#E0E0E0"/>
<path d="M42.8909 47.3242H39.6274V50.5877H42.8909V47.3242Z" fill="#E0E0E0"/>
<path d="M51.0696 47.1787H47.8062V50.4422H51.0696V47.1787Z" fill="#E0E0E0"/>
<path d="M58.9421 47.3242H55.6787V50.5877H58.9421V47.3242Z" fill="#E0E0E0"/>
<path d="M66.9758 47.3242H63.7124V50.5877H66.9758V47.3242Z" fill="#EBEBEB"/>
<path d="M75.0012 47.3242H71.7378V50.5877H75.0012V47.3242Z" fill="#E0E0E0"/>
<path d="M26.8396 54.2617H23.5762V57.5252H26.8396V54.2617Z" fill="#E0E0E0"/>
<path d="M34.8655 54.2617H31.6021V57.5252H34.8655V54.2617Z" fill="#EBEBEB"/>
<path d="M42.8909 54.2617H39.6274V57.5252H42.8909V54.2617Z" fill="#E0E0E0"/>
<path d="M50.9168 54.2617H47.6533V57.5252H50.9168V54.2617Z" fill="#E0E0E0"/>
<path d="M58.9421 54.2617H55.6787V57.5252H58.9421V54.2617Z" fill="#E0E0E0"/>
<path d="M67.1209 54.1094H63.8574V57.3728H67.1209V54.1094Z" fill="#E0E0E0"/>
<path d="M75.0012 54.2617H71.7378V57.5252H75.0012V54.2617Z" fill="#E0E0E0"/>
<path d="M363.772 1.62695H308.946V56.4528H363.772V1.62695Z" fill="white"/>
<path d="M363.772 56.4616C363.772 56.4616 363.772 56.3649 363.772 56.1957C363.772 56.0265 363.772 55.7606 363.772 55.3899C363.772 54.7131 363.772 53.7219 363.772 52.4407C363.772 49.8461 363.772 46.075 363.724 41.2806C363.724 31.6836 363.667 18.0013 363.627 1.58744L363.812 1.77278H309.019L309.228 1.56327C309.228 21.6435 309.228 40.4587 309.228 56.3972L309.051 56.2118L348.736 56.3085L359.896 56.3569H362.854H363.611H363.877H362.894H359.969L348.857 56.4052L309.051 56.4938H308.866V56.3166C308.866 40.3781 308.866 21.5629 308.866 1.52298V1.31348H309.075H363.869H364.054V1.49075C364.014 17.953 363.982 31.6756 363.957 41.2967C363.957 46.075 363.957 49.838 363.909 52.4166C363.909 53.6897 363.909 54.6647 363.909 55.3335C363.909 55.6558 363.909 55.8976 363.909 56.0748C363.909 56.2521 363.772 56.4616 363.772 56.4616Z" fill="#E0E0E0"/>
<path d="M363.538 15.6653C363.538 15.7781 351.315 15.8748 336.238 15.8748C321.162 15.8748 308.946 15.7781 308.946 15.6653C308.946 15.5525 321.162 15.4639 336.238 15.4639C351.315 15.4639 363.538 15.5525 363.538 15.6653Z" fill="#E0E0E0"/>
<path d="M314.28 9.91894C315.139 9.91894 315.835 9.22266 315.835 8.36377C315.835 7.50487 315.139 6.80859 314.28 6.80859C313.421 6.80859 312.725 7.50487 312.725 8.36377C312.725 9.22266 313.421 9.91894 314.28 9.91894Z" fill="#E0E0E0"/>
<path d="M319.019 9.91894C319.877 9.91894 320.574 9.22266 320.574 8.36377C320.574 7.50487 319.877 6.80859 319.019 6.80859C318.16 6.80859 317.463 7.50487 317.463 8.36377C317.463 9.22266 318.16 9.91894 319.019 9.91894Z" fill="#E0E0E0"/>
<path d="M325.312 8.36379C325.312 8.67137 325.22 8.97205 325.049 9.22779C324.879 9.48354 324.636 9.68287 324.351 9.80058C324.067 9.91829 323.755 9.94908 323.453 9.88908C323.151 9.82907 322.874 9.68095 322.657 9.46346C322.439 9.24596 322.291 8.96886 322.231 8.66719C322.171 8.36551 322.202 8.05282 322.32 7.76865C322.437 7.48448 322.637 7.24159 322.892 7.07071C323.148 6.89982 323.449 6.80861 323.756 6.80861C323.961 6.80755 324.164 6.84704 324.353 6.92482C324.542 7.0026 324.714 7.11711 324.858 7.26174C325.003 7.40636 325.118 7.57822 325.195 7.76739C325.273 7.95655 325.313 8.15926 325.312 8.36379Z" fill="#E0E0E0"/>
<path d="M320.05 31.788C322.511 31.788 324.506 29.793 324.506 27.332C324.506 24.871 322.511 22.876 320.05 22.876C317.589 22.876 315.594 24.871 315.594 27.332C315.594 29.793 317.589 31.788 320.05 31.788Z" fill="#EBEBEB"/>
<path d="M324.506 43.666C324.506 44.5473 324.244 45.4088 323.755 46.1416C323.265 46.8744 322.569 47.4455 321.755 47.7828C320.941 48.12 320.045 48.2083 319.18 48.0364C318.316 47.8644 317.522 47.44 316.899 46.8168C316.276 46.1937 315.851 45.3997 315.679 44.5353C315.507 43.6709 315.596 42.775 315.933 41.9607C316.27 41.1465 316.841 40.4506 317.574 39.9609C318.307 39.4713 319.168 39.21 320.05 39.21C321.232 39.21 322.365 39.6794 323.201 40.5151C324.036 41.3508 324.506 42.4842 324.506 43.666Z" fill="#EBEBEB"/>
<path d="M355.585 26.9693C355.585 27.0821 349.493 27.1788 341.975 27.1788C334.457 27.1788 328.365 27.0821 328.365 26.9693C328.365 26.8565 334.457 26.7598 341.975 26.7598C349.493 26.7598 355.585 26.8484 355.585 26.9693Z" fill="#E0E0E0"/>
<path d="M338.172 43.6095C334.955 43.8884 331.72 43.8884 328.502 43.6095C331.72 43.3307 334.955 43.3307 338.172 43.6095Z" fill="#E0E0E0"/>
<path d="M355.585 64.7929C365.131 64.7929 372.869 57.0545 372.869 47.5088C372.869 37.963 365.131 30.2246 355.585 30.2246C346.039 30.2246 338.301 37.963 338.301 47.5088C338.301 57.0545 346.039 64.7929 355.585 64.7929Z" fill="#E0E0E0"/>
<path d="M357.213 40.9502H355.601V53.7783H357.213V40.9502Z" fill="white"/>
<path d="M362.821 46.5586H349.993V48.1702H362.821V46.5586Z" fill="white"/>
<path d="M32.7477 192.793C41.5386 189.072 45.6488 178.93 41.9282 170.139C38.2075 161.348 28.065 157.238 19.2741 160.959C10.4833 164.679 6.3731 174.822 10.0937 183.613C13.8144 192.403 23.9569 196.514 32.7477 192.793Z" fill="#E0E0E0"/>
<path d="M27.637 170.319H26.0254V183.147H27.637V170.319Z" fill="white"/>
<path d="M33.2456 175.928H20.4175V177.539H33.2456V175.928Z" fill="white"/>
<path d="M235.587 253.598H118.2V307.73H235.587V253.598Z" fill="#F5F5F5"/>
<path d="M232.831 305.184H120.883V256.442H232.831V305.184ZM121.633 304.451H232.026V257.2H121.633V304.451Z" fill="#E0E0E0"/>
<path d="M264.265 253.598H235.587V307.73H264.265V253.598Z" fill="#E0E0E0"/>
<path d="M121.253 271.526H232.452C232.491 271.526 232.528 271.511 232.555 271.484C232.582 271.457 232.597 271.42 232.597 271.381C232.597 271.343 232.582 271.306 232.555 271.279C232.528 271.252 232.491 271.236 232.452 271.236H121.253C121.215 271.236 121.178 271.252 121.151 271.279C121.124 271.306 121.108 271.343 121.108 271.381C121.108 271.42 121.124 271.457 121.151 271.484C121.178 271.511 121.215 271.526 121.253 271.526Z" fill="#E0E0E0"/>
<path d="M177.232 271.381C177.53 266.484 177.53 261.573 177.232 256.676C177.224 256.642 177.205 256.612 177.178 256.591C177.151 256.569 177.117 256.558 177.083 256.558C177.048 256.558 177.014 256.569 176.987 256.591C176.96 256.612 176.941 256.642 176.933 256.676C176.639 261.573 176.639 266.484 176.933 271.381C176.933 271.411 176.945 271.44 176.967 271.461C176.988 271.482 177.016 271.494 177.046 271.494C177.076 271.494 177.105 271.482 177.126 271.461C177.147 271.44 177.159 271.411 177.159 271.381H177.232Z" fill="#E0E0E0"/>
<path d="M207.126 264.025C207.126 264.324 207.038 264.617 206.871 264.866C206.705 265.115 206.468 265.31 206.191 265.424C205.914 265.539 205.61 265.569 205.316 265.51C205.022 265.452 204.752 265.308 204.54 265.096C204.329 264.884 204.184 264.614 204.126 264.32C204.067 264.026 204.097 263.722 204.212 263.445C204.327 263.168 204.521 262.932 204.77 262.765C205.019 262.599 205.312 262.51 205.612 262.51C206.013 262.51 206.399 262.669 206.683 262.953C206.967 263.238 207.126 263.623 207.126 264.025Z" fill="#E0E0E0"/>
<path d="M148.779 264.025C148.779 264.324 148.69 264.617 148.524 264.866C148.358 265.115 148.121 265.31 147.844 265.424C147.567 265.539 147.263 265.569 146.969 265.51C146.675 265.452 146.405 265.308 146.193 265.096C145.981 264.884 145.837 264.614 145.779 264.32C145.72 264.026 145.75 263.722 145.865 263.445C145.979 263.168 146.174 262.932 146.423 262.765C146.672 262.599 146.965 262.51 147.264 262.51C147.666 262.51 148.051 262.669 148.336 262.953C148.62 263.238 148.779 263.623 148.779 264.025Z" fill="#E0E0E0"/>
<path d="M178.352 280.818C178.352 281.117 178.263 281.41 178.097 281.659C177.93 281.908 177.694 282.103 177.417 282.217C177.14 282.332 176.835 282.362 176.542 282.303C176.248 282.245 175.978 282.101 175.766 281.889C175.554 281.677 175.41 281.407 175.351 281.113C175.293 280.819 175.323 280.515 175.438 280.238C175.552 279.961 175.746 279.724 175.996 279.558C176.245 279.392 176.538 279.303 176.837 279.303C177.239 279.303 177.624 279.462 177.908 279.746C178.192 280.031 178.352 280.416 178.352 280.818Z" fill="#E0E0E0"/>
<path d="M132.237 307.73L126.193 341.719H129.594L140.73 307.73H132.237Z" fill="#E0E0E0"/>
<path d="M227.279 307.73L232.332 341.775H228.931L218.778 307.73H227.279Z" fill="#E0E0E0"/>
<path d="M249.97 307.73L255.699 341.775H252.299L241.469 307.73H249.97Z" fill="#E0E0E0"/>
<path d="M178.248 296.135C178.248 296.435 178.158 296.728 177.992 296.977C177.825 297.227 177.588 297.421 177.311 297.535C177.033 297.65 176.728 297.679 176.434 297.62C176.14 297.561 175.87 297.416 175.659 297.203C175.447 296.991 175.303 296.72 175.246 296.426C175.188 296.131 175.22 295.826 175.335 295.55C175.451 295.273 175.647 295.037 175.897 294.872C176.147 294.706 176.441 294.619 176.741 294.62C177.141 294.622 177.524 294.783 177.807 295.067C178.089 295.351 178.248 295.735 178.248 296.135Z" fill="#E0E0E0"/>
<path d="M121.254 288.295H232.453C232.486 288.287 232.516 288.268 232.538 288.241C232.559 288.214 232.571 288.181 232.571 288.146C232.571 288.112 232.559 288.078 232.538 288.051C232.516 288.024 232.486 288.005 232.453 287.997H121.254C121.22 288.005 121.19 288.024 121.169 288.051C121.147 288.078 121.136 288.112 121.136 288.146C121.136 288.181 121.147 288.214 121.169 288.241C121.19 288.268 121.22 288.287 121.254 288.295Z" fill="#E0E0E0"/>
<path d="M356.463 341.872C356.463 341.984 277.657 342.081 180.463 342.081C83.269 342.081 4.44678 341.984 4.44678 341.872C4.44678 341.759 83.2367 341.662 180.463 341.662C277.69 341.662 356.463 341.751 356.463 341.872Z" fill="#263238"/>
<path d="M295.965 28.1299H54.3174V241.035H295.965V28.1299Z" fill="white"/>
<path d="M295.965 157.757H54.3174V193.727H295.965V157.757Z" fill="white"/>
<path d="M295.965 116.604H54.3174V157.764H295.965V116.604Z" fill="#F5F5F5"/>
<path d="M295.965 199.609H54.3174V240.769H295.965V199.609Z" fill="#F5F5F5"/>
<path d="M200.221 129.418C200.221 129.538 171.721 129.635 136.564 129.635C101.407 129.635 72.9067 129.538 72.9067 129.418C72.9067 129.297 101.399 129.208 136.564 129.208C171.729 129.208 200.221 129.305 200.221 129.418Z" fill="#263238"/>
<path d="M126.661 140.876C126.661 140.988 114.574 141.085 99.6109 141.085C84.6474 141.085 72.5605 140.988 72.5605 140.876C72.5605 140.763 84.6474 140.666 99.6109 140.666C114.574 140.666 126.661 140.763 126.661 140.876Z" fill="#263238"/>
<path d="M200.221 170.021C200.221 170.134 171.721 170.231 136.564 170.231C101.407 170.231 72.9067 170.134 72.9067 170.021C72.9067 169.908 101.399 169.812 136.564 169.812C171.729 169.812 200.221 169.9 200.221 170.021Z" fill="#263238"/>
<path d="M126.661 181.455C126.661 181.575 114.574 181.664 99.6109 181.664C84.6474 181.664 72.5605 181.575 72.5605 181.455C72.5605 181.334 84.6474 181.245 99.6109 181.245C114.574 181.245 126.661 181.358 126.661 181.455Z" fill="#263238"/>
<path d="M200.221 210.617C200.221 210.73 171.721 210.826 136.564 210.826C101.407 210.826 72.9067 210.73 72.9067 210.617C72.9067 210.504 101.399 210.407 136.564 210.407C171.729 210.407 200.221 210.464 200.221 210.617Z" fill="#263238"/>
<path d="M126.661 222.067C126.661 222.188 114.574 222.276 99.6109 222.276C84.6474 222.276 72.5605 222.188 72.5605 222.067C72.5605 221.946 84.6474 221.857 99.6109 221.857C114.574 221.857 126.661 221.954 126.661 222.067Z" fill="#263238"/>
<path d="M295.965 27.8633H54.3174V48.1772H295.965V27.8633Z" fill="#E0E0E0"/>
<path d="M295.965 46.252H54.3174V66.5659H295.965V46.252Z" fill="#F5F5F5"/>
<path d="M68.8615 37.3803C68.8567 37.8848 68.7027 38.3766 68.4188 38.7936C68.1348 39.2106 67.7338 39.5343 67.2662 39.7236C66.7986 39.913 66.2853 39.9597 65.7912 39.8578C65.2971 39.7559 64.8443 39.5099 64.4898 39.1509C64.1353 38.7919 63.895 38.336 63.7993 37.8407C63.7036 37.3453 63.7567 36.8327 63.952 36.3675C64.1472 35.9023 64.4759 35.5054 64.8965 35.2267C65.317 34.9481 65.8107 34.8002 66.3152 34.8018C66.6523 34.8017 66.9861 34.8687 67.2971 34.9986C67.6082 35.1286 67.8903 35.319 68.1272 35.5589C68.3641 35.7988 68.551 36.0833 68.677 36.396C68.8031 36.7086 68.8658 37.0432 68.8615 37.3803Z" fill="#263238"/>
<path d="M78.2253 37.3795C78.2205 37.885 78.0657 38.3777 77.7807 38.7953C77.4957 39.2128 77.0932 39.5363 76.6242 39.725C76.1552 39.9136 75.6407 39.9588 75.146 39.8549C74.6513 39.751 74.1985 39.5026 73.845 39.1412C73.4915 38.7798 73.2532 38.3217 73.1602 37.8248C73.0673 37.3279 73.1239 36.8145 73.3229 36.3498C73.5218 35.8851 73.8542 35.4898 74.2779 35.2141C74.7017 34.9384 75.1977 34.7946 75.7032 34.801C76.3792 34.8095 77.0243 35.0857 77.4971 35.569C77.9699 36.0524 78.2317 36.7034 78.2253 37.3795Z" fill="#263238"/>
<path d="M87.5803 37.3803C87.5755 37.8844 87.4216 38.3759 87.1381 38.7928C86.8545 39.2096 86.4539 39.5333 85.9868 39.7229C85.5196 39.9125 85.0068 39.9597 84.5129 39.8584C84.019 39.7571 83.5662 39.512 83.2113 39.1538C82.8565 38.7956 82.6156 38.3404 82.519 37.8456C82.4224 37.3508 82.4744 36.8384 82.6684 36.3731C82.8624 35.9078 83.1898 35.5102 83.6093 35.2306C84.0289 34.951 84.5217 34.8018 85.0259 34.8018C85.3634 34.8017 85.6975 34.8686 86.009 34.9985C86.3205 35.1284 86.6032 35.3187 86.8407 35.5584C87.0782 35.7982 87.2659 36.0826 87.3928 36.3953C87.5197 36.708 87.5835 37.0428 87.5803 37.3803Z" fill="#263238"/>
<path d="M296.014 241.083C296.014 239.729 295.965 158.087 295.893 27.9038L296.014 28.065L54.4866 28.1133L54.6316 27.9038C54.6316 103.575 54.6316 175.645 54.6316 241.083L54.4947 240.89L296.038 241.083L54.4947 241.277H54.3496V241.083C54.3496 175.645 54.3496 103.575 54.3496 27.9038V27.6943H54.5188L296.046 27.7346H296.167V27.9038C296.054 158.087 296.014 239.689 296.014 241.083Z" fill="#263238"/>
<path d="M274.741 132.374H239.439C235.501 132.374 232.308 135.567 232.308 139.505V139.513C232.308 143.452 235.501 146.645 239.439 146.645H274.741C278.679 146.645 281.872 143.452 281.872 139.513V139.505C281.872 135.567 278.679 132.374 274.741 132.374Z" fill="#E0E0E0"/>
<path d="M274.733 187.844H239.439C238.503 187.844 237.576 187.66 236.71 187.302C235.845 186.943 235.059 186.418 234.397 185.756C233.735 185.094 233.209 184.307 232.851 183.442C232.493 182.577 232.308 181.65 232.308 180.713C232.308 178.822 233.059 177.008 234.397 175.671C235.734 174.333 237.548 173.582 239.439 173.582H274.733C275.669 173.582 276.597 173.766 277.462 174.125C278.327 174.483 279.113 175.009 279.775 175.671C280.438 176.333 280.963 177.119 281.321 177.984C281.68 178.849 281.864 179.777 281.864 180.713C281.864 181.65 281.68 182.577 281.321 183.442C280.963 184.307 280.438 185.094 279.775 185.756C279.113 186.418 278.327 186.943 277.462 187.302C276.597 187.66 275.669 187.844 274.733 187.844Z" fill="#EBEBEB"/>
<path d="M274.741 213.944H239.439C235.501 213.944 232.308 217.137 232.308 221.076V221.084C232.308 225.022 235.501 228.215 239.439 228.215H274.741C278.679 228.215 281.872 225.022 281.872 221.084V221.076C281.872 217.137 278.679 213.944 274.741 213.944Z" fill="#E0E0E0"/>
<path d="M48.306 283.114C41.8597 285.378 33.3667 283.355 27.8229 279.302C22.279 275.249 18.2904 269.456 14.761 263.573C13.2462 261.059 11.7796 258.448 11.2962 255.515C10.8127 252.582 11.5218 249.375 13.7619 247.458C17.2509 244.524 22.6255 246.007 26.5417 248.263C32.7149 251.863 37.9206 256.91 41.7106 262.968C45.5006 269.026 47.7612 275.915 48.2979 283.041" fill="#38A3A5"/>
<path d="M41.3359 298.625C37.444 303.758 30.7559 306.047 24.3257 306.345C17.8956 306.643 11.5298 304.862 5.51059 302.549C3.32691 301.744 0.941777 300.567 0.192394 298.351C-0.0437726 297.495 -0.0628279 296.594 0.136954 295.729C0.336736 294.863 0.749051 294.062 1.33661 293.396C2.52753 292.077 4.01677 291.063 5.67981 290.438C11.5943 287.916 18.379 287.795 24.6078 289.415C30.8365 291.035 36.2836 294.637 41.3359 298.625Z" fill="#38A3A5"/>
<path d="M48.3866 255.346C43.0281 255.459 38.9669 250.761 36.5335 245.975C33.1542 239.288 32.0237 231.689 33.3103 224.307C33.8018 221.56 34.8333 218.611 37.2909 217.289C39.7486 215.968 43.0281 216.83 45.1151 218.739C47.2021 220.649 48.3383 223.373 49.144 226.072C52.0288 235.395 51.4083 246.104 48.3383 255.346" fill="#38A3A5"/>
<path d="M66.0332 285.024C56.8875 269.456 55.3645 250.375 60.7633 233.179C61.6416 230.391 63.2935 227.192 66.2185 227.007C69.4416 226.797 71.4883 230.407 72.3828 233.526C75.5173 244.468 74.8485 256.088 74.1555 267.441C73.7284 274.443 71.3272 280.422 66.0332 285.024Z" fill="#38A3A5"/>
<path d="M75.5259 291.422C77.227 286.088 80.1041 281.203 83.9449 277.13C87.7858 273.056 92.4923 269.897 97.7173 267.885C100.135 266.974 103.237 266.451 105.042 268.312C106.847 270.173 106.275 273.147 105.139 275.459C103.293 279.134 100.304 282.083 97.3225 284.919C94.615 287.498 91.8028 290.084 88.3782 291.583C84.9536 293.082 78.6523 293.469 75.5259 291.422Z" fill="#38A3A5"/>
<path d="M18.814 251.43C18.8609 251.485 18.9151 251.534 18.9751 251.575L19.4667 251.954L21.3844 253.388L22.7784 254.419C23.278 254.806 23.8018 255.225 24.39 255.717C25.5181 256.659 26.8557 257.683 28.2014 258.94L30.3609 260.906C31.1022 261.591 31.8274 262.364 32.601 263.13C34.1723 264.645 35.6952 266.409 37.339 268.23C40.7885 272.295 43.9393 276.604 46.7668 281.123C49.5342 285.672 51.9712 290.414 54.0591 295.313C54.9536 297.593 55.856 299.745 56.4765 301.832C56.8149 302.871 57.1856 303.854 57.4676 304.829L58.2734 307.633C58.8133 309.414 59.1275 311.066 59.466 312.468C59.6271 313.185 59.7964 313.854 59.9172 314.475C60.0381 315.095 60.1267 315.667 60.2154 316.175C60.3926 317.174 60.5377 317.964 60.6424 318.536L60.7633 319.148C60.7684 319.218 60.7875 319.287 60.8197 319.35C60.8288 319.28 60.8288 319.21 60.8197 319.14C60.8197 318.979 60.7714 318.769 60.7391 318.52C60.6585 317.948 60.5457 317.15 60.3926 316.151C60.3201 315.635 60.2315 315.063 60.1348 314.434C60.0381 313.806 59.8689 313.145 59.7238 312.42C59.4015 310.977 59.1114 309.31 58.5877 307.529C58.3379 306.626 58.0881 305.683 57.7819 304.7C57.4757 303.717 57.1453 302.726 56.8069 301.687C56.1703 299.592 55.2839 297.424 54.3895 295.128C52.3306 290.2 49.9065 285.432 47.1374 280.865C44.298 276.336 41.1223 272.026 37.6372 267.973C36.0256 266.151 34.414 264.387 32.8508 262.88C32.045 262.114 31.344 261.341 30.5865 260.664L28.4028 258.714C27.0411 257.449 25.6873 256.442 24.5351 255.491C23.9549 255.04 23.4231 254.596 22.9235 254.218L21.5053 253.219L19.5392 251.849L19.0235 251.502C18.8784 251.462 18.822 251.422 18.814 251.43Z" fill="#263238"/>
<path d="M6.70312 294.58C6.91594 294.57 7.12683 294.535 7.33164 294.476C7.74259 294.403 8.33082 294.25 9.11243 294.121C11.3 293.706 13.5127 293.437 15.736 293.315C23.085 292.901 30.4336 294.137 37.2425 296.933C44.0272 299.791 50.0849 304.133 54.9698 309.641C56.4484 311.306 57.8158 313.066 59.0632 314.91C59.5145 315.555 59.8207 316.087 60.0624 316.425C60.1733 316.607 60.2944 316.782 60.425 316.949C60.3471 316.752 60.2499 316.563 60.1349 316.385C59.9174 316.022 59.6353 315.475 59.2002 314.814C57.9908 312.926 56.6442 311.13 55.1713 309.439C50.3286 303.809 44.2354 299.391 37.3793 296.538C30.5232 293.685 23.0946 292.477 15.6877 293.009C13.4566 293.161 11.24 293.479 9.05603 293.96C8.25024 294.113 7.69424 294.298 7.28329 294.403C6.87234 294.508 6.70312 294.572 6.70312 294.58Z" fill="#263238"/>
<path d="M40.4816 223.502C40.4723 223.582 40.4723 223.663 40.4816 223.744L40.6266 224.445C40.7636 225.089 40.965 225.984 41.2229 227.128C41.7547 229.449 42.5524 232.809 43.5677 236.951C45.5822 245.234 48.5072 256.644 51.5611 269.287C53.076 275.62 54.4459 281.664 55.5901 287.167C56.7343 292.671 57.7415 297.643 58.4748 301.865C58.8696 303.952 59.1678 305.894 59.4498 307.505C59.7318 309.117 59.9574 310.616 60.1267 311.792C60.2959 312.969 60.449 313.855 60.5537 314.508C60.6021 314.798 60.6424 315.031 60.6746 315.209C60.68 315.292 60.699 315.374 60.731 315.45C60.74 315.37 60.74 315.289 60.731 315.209C60.731 315.023 60.6827 314.79 60.6504 314.492L60.3926 311.792C60.2475 310.608 60.0461 309.165 59.7802 307.489C59.5143 305.813 59.2484 303.912 58.8696 301.808C58.1767 297.602 57.2581 292.614 56.0736 287.087C54.889 281.559 53.5514 275.524 52.0446 269.19C48.9907 256.539 46.0173 245.145 43.9223 236.878C42.8828 232.769 42.0448 229.425 41.4485 227.088C41.1665 225.952 40.9328 225.065 40.7716 224.429C40.6991 224.139 40.6346 223.913 40.5863 223.736C40.559 223.655 40.5239 223.576 40.4816 223.502Z" fill="#263238"/>
<path d="M61.4888 314.217C61.5137 314.158 61.5326 314.096 61.5452 314.032C61.5452 313.879 61.6177 313.694 61.6741 313.468C61.7789 312.944 61.932 312.219 62.1253 311.301C62.5121 309.423 63.0198 306.691 63.608 303.299C64.7844 296.53 66.1704 287.119 67.0245 276.66C67.4436 271.43 67.6692 266.434 67.7739 261.89C67.8787 257.345 67.7739 253.243 67.6692 249.803C67.6692 248.086 67.508 246.531 67.4355 245.169C67.363 243.808 67.2743 242.631 67.1857 241.672C67.0971 240.713 67.0326 240.012 66.9762 239.473C66.9762 239.239 66.9762 239.054 66.9117 238.9C66.9202 238.836 66.9202 238.771 66.9117 238.707C66.9028 238.771 66.9028 238.836 66.9117 238.9C66.9117 239.062 66.9117 239.247 66.9117 239.481C66.9117 240.02 66.9762 240.754 67.0326 241.688C67.089 242.623 67.1615 243.816 67.2099 245.186C67.2582 246.555 67.3549 248.094 67.3791 249.811C67.4838 253.243 67.4919 257.337 67.3791 261.898C67.2663 266.458 67.0084 271.422 66.5733 276.644C65.7192 287.119 64.3816 296.49 63.2857 303.235C62.7377 306.627 62.2704 309.367 61.932 311.292C61.7789 312.211 61.6499 312.904 61.5613 313.468C61.5613 313.702 61.4968 313.887 61.4727 314.04C61.4674 314.1 61.4728 314.16 61.4888 314.217Z" fill="#263238"/>
<path d="M60.812 316.199C60.9032 316.025 60.9813 315.845 61.0457 315.659L61.65 314.096L62.0771 312.96C62.2624 312.557 62.4558 312.114 62.6653 311.647C62.8748 311.179 63.1005 310.672 63.3341 310.132C63.5678 309.592 63.8821 309.06 64.1399 308.48L65.0746 306.659L66.1866 304.749C66.9199 303.411 67.8707 302.074 68.7813 300.623C70.9218 297.571 73.2327 294.641 75.703 291.848C78.2011 289.077 80.8394 286.436 83.6078 283.935C84.9293 282.823 86.1299 281.72 87.3466 280.785L89.0791 279.407L90.6906 278.198C91.7221 277.392 92.7051 276.748 93.5592 276.176C94.4134 275.604 95.1708 275.096 95.7752 274.725L97.1933 273.823C97.3657 273.727 97.5277 273.614 97.6768 273.484C97.4937 273.555 97.3182 273.644 97.1531 273.75L95.6946 274.556C95.0499 274.911 94.2925 275.362 93.4303 275.95C92.5681 276.538 91.5609 277.151 90.5134 277.924L88.8454 279.117L87.0888 280.487C85.864 281.405 84.6714 282.509 83.3177 283.613C80.5199 286.107 77.8595 288.751 75.3484 291.534C72.8756 294.347 70.5749 297.307 68.4589 300.398C67.5403 301.864 66.5976 303.21 65.8724 304.572L64.7765 306.506L63.8659 308.343C63.5839 308.931 63.2858 309.479 63.0602 310.019C62.8345 310.559 62.617 311.074 62.4155 311.55C62.2141 312.025 62.0288 312.476 61.8595 312.887C61.6903 313.298 61.5775 313.693 61.4566 314.04C61.2391 314.692 61.0699 315.224 60.9329 315.651C60.8742 315.829 60.8337 316.013 60.812 316.199Z" fill="#263238"/>
<path d="M22.2065 269.488C22.2065 269.552 23.3185 269.552 25.0993 269.657C27.416 269.778 29.7226 270.047 32.0049 270.463C34.2828 270.905 36.5302 271.491 38.7333 272.219C39.6334 272.566 40.5505 272.868 41.481 273.122C41.2723 272.965 41.0415 272.84 40.7961 272.751C40.3448 272.534 39.676 272.252 38.8299 271.945C36.6378 271.139 34.3817 270.519 32.0855 270.092C29.7842 269.654 27.4496 269.414 25.1074 269.375C24.213 269.375 23.4958 269.375 22.9801 269.415C22.7201 269.4 22.4592 269.424 22.2065 269.488Z" fill="#263238"/>
<path d="M15.3086 303.185C16.31 301.131 17.575 299.216 19.0716 297.488C21.634 294.692 24.5349 293.459 24.4543 293.314C23.7999 293.489 23.1753 293.761 22.601 294.12C21.1752 294.945 19.8798 295.977 18.7574 297.182C17.6386 298.378 16.7068 299.737 15.9935 301.211C15.655 301.826 15.4233 302.493 15.3086 303.185Z" fill="#263238"/>
<path d="M38.8383 236.144C38.7496 236.232 40.4499 237.9 42.2709 240.172C44.092 242.445 45.4135 244.411 45.4941 244.346C44.7407 242.731 43.7583 241.233 42.5771 239.899C41.5182 238.473 40.2589 237.209 38.8383 236.144Z" fill="#263238"/>
<path d="M44.3654 226.58C43.6633 228.953 43.2467 231.401 43.1245 233.872C43.5266 232.703 43.7968 231.492 43.9303 230.263C44.2158 229.056 44.3618 227.82 44.3654 226.58Z" fill="#263238"/>
<path d="M61.4727 256.547C62.2368 258.485 63.1306 260.369 64.1479 262.187C65.0434 264.066 66.0664 265.88 67.2099 267.618C66.448 265.679 65.5542 263.795 64.5347 261.978C63.6392 260.1 62.6161 258.285 61.4727 256.547Z" fill="#263238"/>
<path d="M71.6737 246.378C70.7946 247.666 70.034 249.03 69.4014 250.455C68.6439 251.814 68.0154 253.241 67.5239 254.718C68.4033 253.435 69.1613 252.072 69.7882 250.649C70.5486 249.287 71.1799 247.857 71.6737 246.378Z" fill="#263238"/>
<path d="M86.6211 281.148C86.6211 281.269 88.4663 280.922 90.7306 280.761C92.9949 280.6 94.8482 280.688 94.8562 280.568C93.4981 280.242 92.0925 280.163 90.7064 280.334C89.3078 280.367 87.9255 280.642 86.6211 281.148Z" fill="#263238"/>
<path d="M76.4041 311.888L71.3115 338.664C71.1482 339.523 70.6902 340.298 70.0165 340.856C69.3427 341.413 68.4955 341.718 67.621 341.718H52.585C51.6961 341.719 50.8358 341.404 50.1571 340.83C49.4783 340.256 49.0252 339.46 48.8784 338.583L44.4546 311.888H76.4041Z" fill="#263238"/>
<path d="M74.7522 320.59H45.9775L44.4546 311.888H76.4041L74.7522 320.59Z" fill="#455A64"/>
<path d="M74.7517 320.591L74.1474 323.766H46.4202L45.9771 320.591H74.7517Z" fill="#FAFAFA"/>
<path d="M296.626 317.489L297.262 333.089C297.262 333.089 281.614 338.979 281.453 341.872L311.75 341.727V317.376L296.626 317.489Z" fill="#263238"/>
<path d="M306.626 331.735C306.917 331.823 307.167 332.016 307.326 332.276C307.485 332.536 307.542 332.846 307.488 333.146C307.408 333.439 307.22 333.691 306.961 333.852C306.702 334.012 306.392 334.067 306.094 334.008C305.785 333.916 305.522 333.712 305.355 333.436C305.188 333.161 305.13 332.833 305.191 332.517C305.301 332.215 305.524 331.969 305.813 331.83C306.103 331.692 306.435 331.672 306.738 331.776" fill="#E0E0E0"/>
<path d="M311.751 341.727L311.654 339.31L282.646 340.365C282.646 340.365 281.3 340.961 281.453 341.912L311.751 341.727Z" fill="#455A64"/>
<path d="M296.771 332.943C296.771 333.088 297.512 333.153 298.245 333.62C298.979 334.088 299.365 334.716 299.502 334.66C299.639 334.603 299.414 333.741 298.519 333.185C297.625 332.629 296.739 332.806 296.771 332.943Z" fill="white"/>
<path d="M293.596 334.266C293.596 334.411 294.209 334.66 294.716 335.281C295.224 335.901 295.369 336.57 295.522 336.562C295.675 336.554 295.756 335.716 295.119 334.951C294.483 334.185 293.604 334.129 293.596 334.266Z" fill="white"/>
<path d="M291.815 338.077C291.944 338.077 292.146 337.368 291.767 336.562C291.388 335.756 290.687 335.434 290.623 335.563C290.558 335.692 290.993 336.111 291.299 336.779C291.606 337.448 291.654 338.069 291.815 338.077Z" fill="white"/>
<path d="M297.021 329.366C297.085 329.503 297.762 329.293 298.632 329.366C299.502 329.439 300.115 329.68 300.195 329.551C300.276 329.422 299.639 328.899 298.656 328.85C297.673 328.802 296.948 329.253 297.021 329.366Z" fill="white"/>
<path d="M343.225 321.123L347.157 339.6L346.053 355.112C346.034 355.376 346.07 355.642 346.158 355.892C346.246 356.142 346.385 356.371 346.566 356.566C346.746 356.76 346.965 356.915 347.208 357.021C347.451 357.127 347.714 357.182 347.979 357.182C348.286 357.183 348.588 357.11 348.862 356.969C349.135 356.829 349.371 356.626 349.55 356.377C351.871 353.154 360.348 341.123 360.025 339.786C359.598 338.238 357.173 320.02 357.173 320.02L343.225 321.123Z" fill="#263238"/>
<path d="M347.971 357.181L359.735 338.527L359.888 339.333C360.019 340.012 359.902 340.716 359.558 341.315C358.639 342.927 356.012 347.31 349.598 356.384C349.415 356.639 349.173 356.845 348.892 356.986C348.611 357.126 348.301 357.196 347.987 357.189L347.971 357.181Z" fill="#455A64"/>
<g opacity="0.6">
<path d="M354.795 333.259C354.604 333.474 354.498 333.753 354.498 334.041C354.498 334.329 354.604 334.607 354.795 334.822C354.999 335.028 355.274 335.148 355.563 335.157C355.853 335.166 356.135 335.064 356.35 334.871C356.555 334.643 356.669 334.347 356.669 334.041C356.669 333.734 356.555 333.439 356.35 333.211C356.115 333.023 355.817 332.933 355.517 332.958C355.218 332.984 354.939 333.123 354.739 333.348" fill="white"/>
</g>
<path d="M350.678 348.253C350.12 347.76 349.475 347.374 348.776 347.117C348.044 346.982 347.293 346.982 346.561 347.117C346.561 347.077 346.746 346.891 347.173 346.746C347.733 346.582 348.329 346.582 348.889 346.746C349.454 346.902 349.963 347.215 350.356 347.649C350.638 347.979 350.718 348.253 350.678 348.253Z" fill="white"/>
<path d="M349.824 351.002C349.234 350.808 348.635 350.646 348.027 350.518C347.408 350.522 346.789 350.557 346.174 350.623C346.721 350.222 347.397 350.038 348.072 350.108C348.747 350.178 349.371 350.497 349.824 351.002Z" fill="white"/>
<path d="M352.539 344.62C350.819 343.727 348.875 343.357 346.947 343.556C347.884 343.184 348.908 343.086 349.898 343.274C350.889 343.462 351.805 343.929 352.539 344.62Z" fill="white"/>
<path d="M351.814 338.899C351.814 339.02 350.678 338.786 349.332 338.995C347.987 339.205 346.996 339.713 346.915 339.608C347.59 339.062 348.4 338.708 349.259 338.583C350.119 338.459 350.996 338.568 351.798 338.899H351.814Z" fill="white"/>
<path d="M350.799 333.452C349.941 333.331 349.07 333.331 348.213 333.452C347.386 333.704 346.597 334.067 345.868 334.532C345.868 334.532 345.989 334.226 346.367 333.903C346.876 333.482 347.478 333.189 348.124 333.049C348.765 332.898 349.433 332.898 350.074 333.049C350.557 333.226 350.815 333.404 350.799 333.452Z" fill="white"/>
<path d="M348.059 332.428C347.954 332.212 347.899 331.975 347.898 331.735C347.84 331.078 347.911 330.415 348.107 329.785C348.216 329.316 348.473 328.895 348.841 328.585C348.973 328.496 349.129 328.449 349.288 328.449C349.447 328.449 349.603 328.496 349.735 328.585C349.984 328.785 350.145 329.074 350.186 329.391C350.261 330.021 350.114 330.658 349.77 331.192C349.426 331.726 348.906 332.123 348.301 332.316C347.699 332.496 347.057 332.492 346.457 332.306C345.857 332.119 345.326 331.758 344.933 331.268C344.833 331.144 344.762 331 344.723 330.845C344.684 330.691 344.678 330.53 344.707 330.374C344.759 330.224 344.854 330.093 344.98 329.997C345.106 329.901 345.258 329.844 345.416 329.834C345.893 329.845 346.357 329.984 346.762 330.237C347.341 330.544 347.862 330.951 348.301 331.437C348.476 331.604 348.616 331.804 348.712 332.025C348.095 331.419 347.395 330.904 346.633 330.494C346.269 330.296 345.863 330.186 345.448 330.172C345.361 330.174 345.276 330.204 345.206 330.257C345.136 330.311 345.086 330.386 345.062 330.47C345.051 330.573 345.062 330.677 345.094 330.776C345.126 330.874 345.178 330.965 345.247 331.042C345.599 331.456 346.064 331.758 346.584 331.914C347.104 332.07 347.658 332.072 348.18 331.921C348.683 331.745 349.113 331.408 349.405 330.962C349.696 330.516 349.832 329.986 349.792 329.455C349.763 329.24 349.657 329.042 349.493 328.899C349.422 328.846 349.336 328.817 349.248 328.817C349.159 328.817 349.073 328.846 349.002 328.899C348.691 329.161 348.469 329.513 348.365 329.906C348.12 330.723 348.016 331.576 348.059 332.428Z" fill="white"/>
<path d="M285.474 190.618C285.474 190.618 285.345 198.837 285.893 209.449C286.102 213.559 294.756 327.787 294.756 327.787L313.435 328.255L310.864 221.496L314.087 222.301C314.087 222.301 323.926 257.901 326.069 266.048C328.616 275.717 342.322 330.688 342.322 330.688L359.397 331.317L348.164 266.926L338.47 205.63L336.528 187.806L285.474 190.618Z" fill="#455A64"/>
<path d="M314.087 210.697C313.836 210.868 313.566 211.009 313.281 211.116C312.542 211.468 311.759 211.72 310.953 211.866C310.383 211.969 309.798 211.969 309.228 211.866C308.559 211.74 307.941 211.424 307.448 210.955C306.94 210.411 306.581 209.745 306.408 209.021C306.207 208.288 306.102 207.531 305.965 206.765C305.441 203.671 305.111 200.851 304.925 198.804C304.837 197.781 304.78 196.951 304.748 196.387C304.717 196.089 304.717 195.79 304.748 195.492C304.835 195.778 304.887 196.073 304.901 196.37C304.982 197.023 305.087 197.829 305.207 198.788C305.457 200.827 305.836 203.623 306.352 206.709C306.618 208.24 306.787 209.787 307.705 210.738C308.14 211.122 308.655 211.404 309.213 211.564C309.77 211.725 310.356 211.759 310.929 211.664C311.72 211.544 312.496 211.335 313.241 211.044C313.508 210.895 313.792 210.778 314.087 210.697Z" fill="#263238"/>
<path d="M308.825 196.089C308.825 196.089 308.946 196 309.212 195.984C309.586 195.99 309.948 196.117 310.243 196.347C310.473 196.518 310.66 196.738 310.792 196.993C310.923 197.247 310.994 197.528 311.001 197.814C310.97 198.173 310.835 198.516 310.613 198.801C310.391 199.086 310.091 199.3 309.749 199.417C309.407 199.534 309.039 199.549 308.689 199.46C308.339 199.372 308.022 199.183 307.778 198.917C307.607 198.69 307.49 198.427 307.436 198.148C307.381 197.869 307.391 197.581 307.463 197.306C307.547 196.937 307.758 196.608 308.06 196.379C308.269 196.218 308.414 196.202 308.422 196.218C308.077 196.516 307.836 196.917 307.737 197.362C307.691 197.593 307.696 197.83 307.752 198.059C307.808 198.287 307.913 198.5 308.06 198.684C308.254 198.887 308.504 199.026 308.778 199.085C309.053 199.144 309.338 199.119 309.599 199.014C309.868 198.937 310.107 198.78 310.286 198.565C310.464 198.349 310.573 198.084 310.598 197.805C310.6 197.57 310.551 197.337 310.453 197.122C310.356 196.908 310.213 196.718 310.034 196.565C309.69 196.285 309.267 196.119 308.825 196.089Z" fill="#263238"/>
<path d="M338.237 204.525C338.031 204.591 337.816 204.621 337.6 204.614C337.015 204.653 336.428 204.653 335.843 204.614C331.958 204.274 328.307 202.613 325.497 199.908C325.073 199.503 324.68 199.067 324.321 198.603C324.175 198.443 324.053 198.264 323.958 198.071C324.014 198.031 324.595 198.732 325.69 199.683C327.115 200.939 328.717 201.978 330.445 202.769C332.18 203.545 334.021 204.058 335.908 204.292C337.326 204.485 338.237 204.453 338.237 204.525Z" fill="#263238"/>
<path d="M293.008 196.04C292.824 196.687 292.576 197.313 292.266 197.91C291.607 199.305 290.796 200.624 289.849 201.842C288.982 202.974 287.975 203.993 286.851 204.872C286.434 205.238 285.961 205.534 285.449 205.75C285.86 205.355 286.293 204.983 286.747 204.638C287.815 203.707 288.792 202.677 289.663 201.56C290.575 200.362 291.384 199.09 292.081 197.756C292.661 196.701 292.967 196.008 293.008 196.04Z" fill="#263238"/>
<path d="M303.741 77.9845C304.024 74.3504 305.666 70.9563 308.338 68.4776C311.011 65.999 314.519 64.6176 318.164 64.6084H318.914C327.012 65.0596 331.154 72.1909 330.477 80.2729L328.72 105.405L314.289 120.409L310.598 111.441V105.47C310.598 105.47 302.814 104.277 302.693 96.5015C302.677 92.7385 303.193 84.9868 303.741 77.9845Z" fill="#FFBE9D"/>
<path d="M310.574 105.462C314.186 105.464 317.723 104.432 320.767 102.488C320.767 102.488 318.35 108.129 310.614 107.412L310.574 105.462Z" fill="#EB996E"/>
<path d="M305.82 84.4713C305.82 84.7594 305.931 85.0363 306.131 85.2437C306.331 85.4511 306.604 85.5729 306.892 85.5833C307.033 85.5943 307.174 85.577 307.309 85.5325C307.443 85.4879 307.567 85.4171 307.673 85.324C307.78 85.231 307.867 85.1176 307.929 84.9906C307.991 84.8635 308.028 84.7254 308.036 84.5841C308.04 84.2941 307.93 84.014 307.73 83.8044C307.529 83.5948 307.254 83.4725 306.964 83.4641C306.822 83.4532 306.68 83.4707 306.545 83.5157C306.41 83.5607 306.286 83.6323 306.179 83.7262C306.073 83.8201 305.986 83.9344 305.924 84.0624C305.862 84.1904 305.827 84.3294 305.82 84.4713Z" fill="#263238"/>
<path d="M305.417 81.7882C305.562 81.9332 306.4 81.3047 307.593 81.3047C308.785 81.3047 309.671 81.901 309.8 81.7559C309.929 81.6109 309.72 81.4256 309.341 81.1516C308.824 80.7905 308.207 80.6016 307.576 80.6117C306.954 80.6105 306.347 80.8081 305.844 81.1758C305.473 81.4578 305.352 81.7237 305.417 81.7882Z" fill="#263238"/>
<path d="M316.633 84.7614C316.633 85.0516 316.746 85.3305 316.947 85.5395C317.148 85.7484 317.423 85.871 317.713 85.8814C317.854 85.8912 317.996 85.8729 318.131 85.8275C318.265 85.782 318.389 85.7104 318.495 85.6167C318.602 85.523 318.689 85.4092 318.751 85.2817C318.813 85.1542 318.849 85.0157 318.857 84.8742C318.857 84.584 318.745 84.305 318.544 84.0961C318.342 83.8872 318.068 83.7646 317.778 83.7541C317.636 83.7432 317.493 83.7607 317.359 83.8058C317.224 83.8508 317.099 83.9223 316.993 84.0162C316.886 84.1101 316.799 84.2244 316.738 84.3524C316.676 84.4804 316.64 84.6195 316.633 84.7614Z" fill="#263238"/>
<path d="M317.174 81.9733C317.319 82.1184 318.157 81.4979 319.349 81.4979C320.542 81.4979 321.428 82.0862 321.557 81.9411C321.686 81.7961 321.477 81.6188 321.098 81.3368C320.578 80.9825 319.962 80.7968 319.333 80.8049C318.71 80.8015 318.102 80.9993 317.601 81.369C317.238 81.651 317.109 81.9089 317.174 81.9733Z" fill="#263238"/>
<path d="M312.862 90.8608C312.233 90.6594 311.58 90.5429 310.92 90.5143C310.614 90.5143 310.324 90.4177 310.268 90.2162C310.244 89.8995 310.314 89.5827 310.469 89.3057L311.372 86.9769C312.613 83.6651 313.515 80.9416 313.378 80.8932C313.241 80.8449 312.129 83.4879 310.88 86.7997C310.582 87.6054 310.3 88.4112 310.026 89.1445C309.834 89.5139 309.78 89.9394 309.873 90.3451C309.917 90.4523 309.985 90.5479 310.071 90.6248C310.158 90.7016 310.261 90.7575 310.372 90.7883C310.541 90.8329 310.714 90.8572 310.888 90.8608C311.544 90.9425 312.207 90.9425 312.862 90.8608Z" fill="#263238"/>
<path d="M316.384 91.6749C316.19 91.6749 316.19 92.9642 315.078 93.8828C313.966 94.8014 312.588 94.6886 312.58 94.8578C312.572 95.027 312.886 95.1076 313.475 95.1157C314.236 95.1308 314.977 94.8704 315.562 94.3824C316.126 93.9198 316.488 93.2547 316.569 92.5291C316.633 92.0134 316.472 91.6669 316.384 91.6749Z" fill="#263238"/>
<path d="M316.859 77.2912C316.972 77.6135 318.165 77.4523 319.575 77.6216C320.985 77.7908 322.113 78.1695 322.298 77.8714C322.379 77.7344 322.177 77.4282 321.726 77.1139C321.114 76.7293 320.422 76.4894 319.702 76.4126C318.983 76.3358 318.256 76.4241 317.576 76.6707C317.061 76.8802 316.803 77.1381 316.859 77.2912Z" fill="#263238"/>
<path d="M305.852 78.3142C306.062 78.5882 306.883 78.3142 307.875 78.3142C308.866 78.3142 309.704 78.4915 309.897 78.2094C309.986 78.0724 309.849 77.7985 309.478 77.5406C308.997 77.2358 308.435 77.0841 307.867 77.1055C307.285 77.1146 306.721 77.3063 306.255 77.6534C305.868 77.9113 305.755 78.1853 305.852 78.3142Z" fill="#263238"/>
<path d="M300.856 71.1754C300.915 70.8183 301.102 70.4951 301.382 70.2665C301.663 70.038 302.017 69.9199 302.379 69.9345C302.001 69.8385 301.643 69.6747 301.323 69.451C301.163 69.3262 301.04 69.1591 300.969 68.9684C300.897 68.7777 300.881 68.5709 300.92 68.3713C301.106 67.7669 301.871 67.6219 302.476 67.4285C303.271 67.1798 303.968 66.6863 304.466 66.0184C305.183 65.0675 305.433 63.8427 306.037 62.7952C306.434 62.1299 306.975 61.5623 307.621 61.1342C308.266 60.706 309 60.4283 309.767 60.3216C310.534 60.2149 311.316 60.2818 312.054 60.5175C312.792 60.7531 313.467 61.1515 314.031 61.6832C314.61 61.0522 315.332 60.5686 316.136 60.2726C316.94 59.9767 317.803 59.877 318.654 59.9818C319.504 60.0867 320.317 60.393 321.025 60.8753C321.733 61.3576 322.316 62.002 322.725 62.7549C323.75 62.2918 324.882 62.1132 326 62.2377C327.118 62.3623 328.182 62.7855 329.08 63.4629C329.979 64.1403 330.678 65.047 331.105 66.0879C331.532 67.1287 331.672 68.2653 331.508 69.3785L326.754 72.4808C326.703 72.1178 326.576 71.7697 326.382 71.4589C326.187 71.1481 325.93 70.8815 325.626 70.6764C325.322 70.4714 324.979 70.3323 324.618 70.2684C324.257 70.2044 323.887 70.217 323.531 70.3051C322.08 70.7725 321.194 72.4888 319.679 72.65C318.495 72.7709 317.463 71.8845 316.311 71.6105C314.87 71.4068 313.407 71.7676 312.226 72.6178C311.061 73.4631 309.791 74.1512 308.447 74.6645C306.788 75.0406 305.054 74.8827 303.491 74.2132C302.802 73.992 302.17 73.6235 301.638 73.1335C301.358 72.8954 301.14 72.5926 301.004 72.2513C300.868 71.9101 300.817 71.5407 300.856 71.1754Z" fill="#263238"/>
<path d="M325.812 70.2574L303.62 70.765C304.368 69.2595 305.475 67.9615 306.843 66.9859C309.726 64.7539 313.239 63.4879 316.883 63.3679C320.501 63.3034 327.874 67.703 330.501 70.1929C332.596 72.1913 332.588 73.9237 332.588 73.9237C332.919 76.8004 331.315 80.0719 330.67 82.8921C330.348 84.3506 329.712 88.7583 329.712 88.7583C328.487 88.7583 328.035 87.7833 328.213 86.5746L328.438 81.8285C327.213 80.855 326.341 79.5067 325.956 77.9902C325.57 76.4738 325.692 74.8727 326.303 73.4322C326.601 72.9971 327.278 71.0632 325.812 70.2574Z" fill="#263238"/>
<path d="M328.817 81.4653C329.84 77.5008 330.751 73.2623 329.445 69.3784L330.098 69.3301L330.38 69.5235C331 69.2932 331.677 69.2668 332.312 69.4482C332.948 69.6295 333.509 70.0092 333.914 70.5317C334.318 71.0543 334.546 71.6925 334.562 72.3532C334.579 73.014 334.384 73.6628 334.006 74.2051C334.665 74.1794 335.311 74.3966 335.82 74.8155C336.33 75.2344 336.668 75.8258 336.77 76.4774C336.797 77.3901 336.574 78.2927 336.125 79.0882C335.678 79.8816 335.417 80.7659 335.36 81.6748C335.344 82.13 335.489 82.5764 335.768 82.9358C336.048 83.2952 336.446 83.5448 336.891 83.6409C336.687 84.1073 336.33 84.4898 335.878 84.7244C335.426 84.9591 334.908 85.0317 334.409 84.9301C334.759 85.6951 335.318 86.3458 336.021 86.8076C334.602 87.831 332.612 87.557 331.017 86.8076C330.035 86.4445 329.22 85.7334 328.728 84.8093C328.401 83.7136 328.432 82.542 328.817 81.4653Z" fill="#263238"/>
<path d="M329.309 86.0346C329.446 85.9782 334.659 84.4231 334.498 89.7574C334.337 95.0917 329.035 93.8266 329.027 93.6735C329.018 93.5204 329.309 86.0346 329.309 86.0346Z" fill="#FFBE9D"/>
<path d="M330.243 91.7074C330.243 91.7074 330.34 91.7719 330.493 91.8524C330.715 91.9412 330.963 91.9412 331.186 91.8524C331.534 91.6419 331.821 91.3435 332.017 90.9871C332.214 90.6307 332.313 90.2288 332.306 89.8218C332.33 89.3674 332.253 88.9134 332.08 88.4923C332.037 88.3249 331.953 88.1706 331.836 88.0429C331.72 87.9151 331.574 87.8177 331.411 87.759C331.306 87.7277 331.193 87.7338 331.091 87.7764C330.99 87.819 330.907 87.8955 330.855 87.9927C330.775 88.1458 330.807 88.2506 330.783 88.2586C330.759 88.2667 330.67 88.1619 330.718 87.9444C330.75 87.8145 330.827 87.7003 330.936 87.622C331.009 87.5674 331.092 87.5285 331.181 87.5077C331.27 87.4869 331.362 87.4847 331.452 87.5012C331.669 87.5506 331.87 87.6552 332.035 87.8048C332.2 87.9544 332.324 88.144 332.394 88.3553C332.611 88.821 332.708 89.3334 332.676 89.846C332.687 90.3197 332.558 90.7861 332.306 91.1872C332.054 91.5883 331.69 91.9065 331.258 92.1022C331.12 92.134 330.977 92.1361 330.838 92.1083C330.699 92.0805 330.568 92.0235 330.452 91.9411C330.251 91.8363 330.227 91.7154 330.243 91.7074Z" fill="#EB996E"/>
<path d="M334.699 81.4646C334.699 81.4646 334.844 81.2632 334.78 80.8441C334.719 80.5561 334.595 80.2851 334.416 80.051C334.238 79.8168 334.01 79.6253 333.748 79.4904C332.986 79.1554 332.163 78.9799 331.331 78.9747C330.858 78.989 330.388 78.8904 329.961 78.6873C329.533 78.4841 329.161 78.1821 328.873 77.8063C328.407 76.9623 328.231 75.9882 328.374 75.0344C328.478 74.14 328.688 73.3181 328.784 72.617C328.977 71.8667 328.944 71.076 328.688 70.3447C328.707 71.0906 328.645 71.8364 328.502 72.5687C328.365 73.2536 328.124 74.0433 327.995 74.9861C327.82 76.0323 328.008 77.1068 328.527 78.0319C328.836 78.5071 329.291 78.8691 329.824 79.0633C330.299 79.2278 330.796 79.3228 331.299 79.3454C332.101 79.3294 332.899 79.4634 333.651 79.7402C333.886 79.853 334.097 80.0116 334.27 80.2067C334.443 80.4018 334.575 80.6295 334.659 80.8764C334.69 81.0708 334.704 81.2677 334.699 81.4646Z" fill="#455A64"/>
<path d="M335.916 79.1201C335.916 79.1201 336.029 78.967 336.069 78.6366C336.096 78.2352 336.022 77.8334 335.855 77.4675C335.688 77.1017 335.431 76.7834 335.11 76.5416C334.802 76.3206 334.45 76.1668 334.079 76.0903C333.719 76.0267 333.374 75.8955 333.063 75.7036C332.923 75.5869 332.811 75.4401 332.736 75.274C332.66 75.1079 332.624 74.927 332.628 74.7447C332.628 74.3418 332.628 73.9389 332.628 73.4876C332.584 72.3917 332.245 71.328 331.645 70.4095C331.52 70.2 331.345 70.0247 331.135 69.8996C330.926 69.7744 330.688 69.7032 330.444 69.6924C330.098 69.6924 329.953 69.8697 329.969 69.8777C329.985 69.8858 330.146 69.8132 330.436 69.8777C330.642 69.914 330.837 69.9977 331.004 70.1221C331.172 70.2466 331.309 70.4085 331.403 70.5949C331.724 71.1545 331.955 71.7608 332.088 72.3918C332.172 72.7649 332.218 73.1456 332.225 73.5279C332.225 73.9147 332.225 74.3337 332.225 74.793C332.223 75.0351 332.276 75.2746 332.379 75.4936C332.482 75.7126 332.633 75.9056 332.821 76.0581C333.182 76.2748 333.582 76.4199 333.998 76.4852C334.306 76.5296 334.601 76.6387 334.863 76.8054C335.126 76.972 335.35 77.1925 335.521 77.4521C335.82 77.9547 335.958 78.5368 335.916 79.1201Z" fill="#455A64"/>
<path d="M304.434 65.9946C304.434 65.9946 304.837 66.2685 305.529 65.922C305.913 65.7012 306.245 65.4019 306.504 65.0437C306.829 64.5926 307.237 64.207 307.705 63.9076C308.32 63.5435 309.028 63.3643 309.742 63.3915C310.457 63.4186 311.148 63.651 311.734 64.0607C312.403 64.52 312.999 65.1727 313.781 65.6722C314.183 65.9587 314.642 66.1565 315.126 66.2524C315.64 66.3221 316.162 66.2554 316.641 66.059C317.584 65.6884 318.325 65.084 319.139 64.7617C319.926 64.4306 320.768 64.2528 321.621 64.2379C323.081 64.1998 324.512 64.6476 325.69 65.5111C326.484 66.092 327.151 66.8297 327.648 67.6787C328.003 68.2911 328.132 68.6617 328.164 68.6456C328.196 68.6295 328.164 68.5489 328.1 68.3636C328.018 68.1033 327.916 67.85 327.793 67.6061C327.331 66.6954 326.67 65.8997 325.86 65.2774C324.648 64.3384 323.154 63.8384 321.621 63.8592C320.717 63.8623 319.822 64.0402 318.986 64.383C318.108 64.7375 317.375 65.3419 316.488 65.6722C316.08 65.8468 315.631 65.9054 315.191 65.8415C314.764 65.7594 314.36 65.5862 314.006 65.3338C313.281 64.8423 312.669 64.1977 311.944 63.7222C311.261 63.2426 310.441 62.9967 309.607 63.0212C308.883 63.0425 308.177 63.2537 307.56 63.6336C307.072 63.9602 306.655 64.3823 306.335 64.8745C306.104 65.2254 305.806 65.5268 305.457 65.7609C305.153 65.955 304.791 66.0376 304.434 65.9946Z" fill="#455A64"/>
<path d="M273.25 136.517L245.716 114.76L241.792 110.643C241.792 110.643 232.412 101.884 231.623 100.925C230.704 99.821 229.947 99.9982 229.568 100.361C228.964 100.933 229.165 102.093 229.923 103.06C230.189 103.399 234.532 108.532 234.532 108.532C233.825 108.297 233.104 108.112 232.372 107.976C230.801 107.645 228.545 108.588 226.732 110.175C224.919 111.763 224.58 112.375 225.168 113.1C225.285 113.231 225.43 113.335 225.591 113.403C225.753 113.471 225.928 113.503 226.103 113.495C226.681 113.499 227.241 113.289 227.674 112.907C230.575 110.393 232.686 111.295 232.686 111.295L233.202 111.835C233.202 111.835 230.342 112.053 229.359 113.785C229.214 114.033 229.121 114.307 229.085 114.591C228.684 114.929 228.379 115.366 228.199 115.858C228.02 116.351 227.971 116.881 228.059 117.398C228.147 117.914 228.368 118.399 228.701 118.804C229.033 119.209 229.465 119.521 229.955 119.708C230.182 119.822 230.438 119.864 230.69 119.83C230.942 119.795 231.177 119.685 231.365 119.514C231.509 119.286 231.597 119.026 231.623 118.757C231.643 118.617 231.675 118.48 231.719 118.346L233.371 119.651C233.371 119.651 237.231 122.391 238.778 123.777L261.84 148.845C262.598 149.669 263.513 150.333 264.531 150.799C265.549 151.266 266.649 151.525 267.768 151.561C268.887 151.598 270.002 151.412 271.049 151.013C272.095 150.615 273.051 150.012 273.862 149.24C274.735 148.405 275.418 147.393 275.865 146.271C276.313 145.149 276.515 143.945 276.457 142.739C276.398 141.532 276.082 140.353 275.529 139.279C274.976 138.206 274.198 137.264 273.25 136.517Z" fill="#FFBE9D"/>
<path d="M244.572 115.115C244.324 115.384 243.999 115.57 243.641 115.647C243.283 115.723 242.91 115.687 242.573 115.542C241.88 115.308 241.292 114.841 240.615 114.559C238.609 113.704 236.151 114.559 234.169 113.592C233.887 113.463 233.597 113.213 233.661 112.915C233.726 112.617 234.064 112.536 234.338 112.488L241.453 111.126" fill="#FFBE9D"/>
<path d="M241.469 111.127C241.199 111.111 240.928 111.133 240.664 111.192C240.164 111.264 239.447 111.377 238.561 111.53L235.434 112.086L234.54 112.247C234.162 112.259 233.803 112.418 233.54 112.691C233.471 112.791 233.434 112.911 233.434 113.033C233.434 113.155 233.471 113.275 233.54 113.375C233.659 113.536 233.813 113.666 233.992 113.754C234.314 113.907 234.652 114.026 234.999 114.109C236.289 114.283 237.589 114.369 238.891 114.367C239.443 114.399 239.986 114.516 240.502 114.713C240.949 114.911 241.385 115.131 241.808 115.374C242.122 115.572 242.476 115.699 242.845 115.747C243.214 115.794 243.589 115.76 243.943 115.648C244.451 115.43 244.556 115.108 244.539 115.116C244.346 115.276 244.129 115.404 243.895 115.495C243.561 115.571 243.216 115.576 242.88 115.511C242.544 115.446 242.226 115.311 241.945 115.116C241.523 114.853 241.087 114.614 240.639 114.399C240.101 114.172 239.53 114.033 238.947 113.988C237.664 113.971 236.383 113.877 235.112 113.706C234.798 113.633 234.493 113.527 234.201 113.392C233.935 113.255 233.766 113.029 233.871 112.908C233.976 112.787 234.29 112.691 234.596 112.634L235.49 112.457L238.593 111.82C239.479 111.627 240.204 111.474 240.68 111.353C240.951 111.31 241.216 111.234 241.469 111.127Z" fill="#EB996E"/>
<path d="M233.307 111.811C232.975 111.491 232.576 111.248 232.139 111.102C231.66 110.98 231.155 111.014 230.696 111.199C230.13 111.437 229.603 111.76 229.133 112.157C228.651 112.573 228.127 112.937 227.57 113.245C227.099 113.502 226.567 113.628 226.031 113.608C225.847 113.599 225.668 113.548 225.507 113.459C225.346 113.369 225.208 113.244 225.104 113.092C225.023 112.985 224.975 112.856 224.967 112.721C224.967 112.721 225.04 112.842 225.185 113.028C225.292 113.152 225.424 113.251 225.573 113.319C225.722 113.387 225.883 113.423 226.047 113.423C226.543 113.413 227.028 113.277 227.457 113.028C227.994 112.714 228.501 112.353 228.972 111.948C229.454 111.537 229.998 111.206 230.584 110.965C231.1 110.767 231.669 110.753 232.195 110.925C232.535 111.037 232.842 111.23 233.09 111.489C233.267 111.682 233.323 111.803 233.307 111.811Z" fill="#EB996E"/>
<path d="M229.608 102.682C229.928 102.993 230.219 103.333 230.479 103.697L232.509 106.195L234.58 108.661C234.876 108.988 235.145 109.338 235.386 109.708C235.029 109.438 234.702 109.13 234.411 108.79C233.839 108.185 233.081 107.339 232.276 106.372C231.47 105.405 230.777 104.495 230.293 103.818C230.022 103.467 229.792 103.086 229.608 102.682Z" fill="#EB996E"/>
<path d="M233.113 113.955C232.987 114.012 232.854 114.055 232.719 114.084C232.548 114.126 232.388 114.204 232.249 114.312C232.11 114.421 231.996 114.557 231.913 114.712C231.871 114.82 231.857 114.936 231.872 115.05C231.888 115.164 231.932 115.273 232.001 115.365C232.179 115.593 232.382 115.801 232.606 115.985C232.896 116.214 233.093 116.541 233.162 116.904C233.174 117.104 233.139 117.304 233.061 117.489C232.983 117.673 232.863 117.837 232.711 117.968C232.56 118.094 232.385 118.187 232.196 118.243C232.008 118.298 231.81 118.314 231.615 118.29C231.254 118.258 230.911 118.117 230.632 117.887C230.208 117.496 229.845 117.046 229.552 116.549C229.345 116.219 229.193 115.857 229.101 115.478C229.052 115.204 229.101 115.051 229.101 115.051C229.101 115.051 229.101 115.204 229.197 115.454C229.317 115.807 229.488 116.141 229.705 116.445C230.004 116.91 230.364 117.333 230.777 117.702C231.02 117.904 231.324 118.02 231.64 118.032C231.956 118.043 232.267 117.95 232.525 117.766C232.643 117.668 232.737 117.545 232.8 117.405C232.862 117.266 232.893 117.113 232.888 116.96C232.833 116.66 232.67 116.39 232.428 116.203C232.193 116 231.984 115.767 231.808 115.51C231.722 115.388 231.671 115.245 231.658 115.097C231.645 114.948 231.672 114.799 231.736 114.664C231.834 114.487 231.973 114.337 232.141 114.225C232.309 114.113 232.502 114.042 232.702 114.019C232.834 113.972 232.974 113.95 233.113 113.955Z" fill="#EB996E"/>
<path d="M231.542 118.065C231.542 118.065 231.671 118.137 231.76 118.379C231.814 118.552 231.827 118.735 231.799 118.913C231.771 119.092 231.703 119.262 231.599 119.41C231.433 119.624 231.214 119.791 230.964 119.894C230.713 119.997 230.441 120.033 230.172 119.999C229.536 119.903 228.96 119.568 228.561 119.064C228.149 118.568 227.901 117.958 227.852 117.315C227.824 116.882 227.893 116.447 228.053 116.043C228.213 115.639 228.461 115.275 228.778 114.979C228.964 114.817 229.085 114.753 229.093 114.769C228.785 115.101 228.527 115.475 228.327 115.881C228.115 116.373 228.043 116.915 228.12 117.445C228.197 117.976 228.419 118.475 228.762 118.887C229.126 119.349 229.649 119.659 230.229 119.757C230.458 119.79 230.691 119.765 230.908 119.685C231.124 119.605 231.318 119.471 231.47 119.298C231.566 119.172 231.635 119.027 231.671 118.873C231.707 118.719 231.71 118.559 231.679 118.403C231.607 118.186 231.526 118.073 231.542 118.065Z" fill="#EB996E"/>
<path d="M237.98 118.556C237.98 118.556 238.117 118.347 238.48 118.145C238.977 117.892 239.542 117.808 240.092 117.903L239.955 118.097C239.787 117.837 239.634 117.568 239.495 117.291C238.971 116.364 238.72 115.309 238.77 114.245C238.988 115.252 239.312 116.232 239.737 117.17C239.874 117.444 240.027 117.702 240.172 117.936L240.333 118.193L240.043 118.129C239.538 118.029 239.015 118.076 238.536 118.266C238.19 118.435 238.005 118.604 237.98 118.556Z" fill="#EB996E"/>
<path d="M230.551 109.838C230.624 109.838 230.737 110.354 230.439 110.926C230.14 111.498 229.633 111.731 229.633 111.667C229.633 111.603 229.955 111.312 230.205 110.805C230.455 110.297 230.479 109.838 230.551 109.838Z" fill="#EB996E"/>
<path d="M272.001 150.989L287.899 139.982C287.899 139.982 286.505 182.608 286.505 183.003C286.505 183.003 283.596 184.155 284.088 187.201L284.894 191.496C302.403 195.525 319.752 198.127 337.407 191.625L339.413 157.669L345.642 116.187L331.436 110.143L329.019 104.503L314.305 120.353L310.542 110.119L310.647 106.26L307.085 110.127L289.841 112.964L268.359 130.377L261.316 124.68L250.688 139.442L262.775 151.642C265.836 152.467 269.086 152.238 272.001 150.989Z" fill="#38A3A5"/>
<path d="M312.145 118.476C311.685 118.736 311.322 119.141 311.114 119.628C310.894 120.187 310.787 120.784 310.8 121.384C310.839 122.204 310.724 123.024 310.461 123.802L310.284 124.221L310.107 123.802C309.629 122.605 309.252 121.371 308.979 120.111C308.374 117.501 307.987 115.107 307.721 113.375C307.544 112.445 307.445 111.501 307.423 110.555C307.681 111.465 307.88 112.391 308.02 113.327C308.35 115.043 308.785 117.42 309.389 120.015C309.655 121.251 310.014 122.466 310.461 123.649H310.107C310.356 122.925 310.481 122.165 310.477 121.401C310.486 120.765 310.632 120.138 310.904 119.563C311.07 119.181 311.352 118.859 311.71 118.645C311.984 118.468 312.137 118.459 312.145 118.476Z" fill="#263238"/>
<path d="M330.638 112.102C330.508 112.356 330.346 112.591 330.154 112.803C329.816 113.238 329.349 113.858 328.704 114.616C327.463 116.131 325.739 118.201 323.805 120.474L320.727 124.068L320.493 124.341L320.404 123.987C319.961 122.238 319.599 120.764 319.373 119.716C319.276 119.201 318.986 118.91 318.704 118.91C318.566 118.903 318.43 118.943 318.317 119.023C318.317 119.023 318.374 118.814 318.704 118.79C318.803 118.789 318.901 118.807 318.992 118.845C319.083 118.882 319.166 118.937 319.236 119.007C319.406 119.199 319.527 119.428 319.591 119.676C319.889 120.707 320.3 122.166 320.767 123.914L320.445 123.834L323.482 120.216C325.416 117.944 327.181 115.905 328.478 114.438C329.123 113.705 329.655 113.117 330.025 112.714C330.204 112.486 330.41 112.28 330.638 112.102Z" fill="#263238"/>
<path d="M309.381 178.829C309.346 178.649 309.332 178.465 309.341 178.281C309.341 177.886 309.341 177.37 309.341 176.734C309.341 175.388 309.341 173.438 309.341 171.029C309.397 166.194 309.623 159.563 310.147 152.238C310.67 144.913 311.46 138.29 312.121 133.519C312.451 131.102 312.741 129.209 312.967 127.879L313.225 126.356C313.256 126.177 313.297 125.999 313.346 125.824C313.369 126.003 313.369 126.185 313.346 126.364C313.297 126.759 313.233 127.275 313.16 127.903C312.983 129.289 312.741 131.207 312.443 133.544C311.863 138.322 311.146 144.929 310.598 152.254C310.05 159.579 309.792 166.21 309.639 171.021C309.583 173.39 309.542 175.324 309.51 176.718C309.51 177.357 309.494 177.873 309.462 178.265C309.447 178.454 309.421 178.643 309.381 178.829Z" fill="#263238"/>
<path d="M305.352 188.611C304.999 187.454 304.873 186.239 304.982 185.034C304.939 183.83 305.064 182.626 305.352 181.456C305.466 182.649 305.466 183.849 305.352 185.042C305.304 187.008 305.433 188.595 305.352 188.611Z" fill="#263238"/>
<path d="M325.787 176.887C325.375 177.085 324.947 177.247 324.506 177.37C323.7 177.66 322.443 178.047 320.928 178.49C316.967 179.632 312.949 180.565 308.89 181.286C304.833 182.003 300.743 182.511 296.634 182.809C295.022 182.914 293.773 182.978 292.887 182.995C292.431 183.033 291.973 183.033 291.517 182.995C291.966 182.906 292.422 182.855 292.879 182.841L296.61 182.527C299.744 182.237 304.079 181.721 308.817 180.916C313.555 180.11 317.802 179.038 320.848 178.232L324.458 177.249C324.892 177.098 325.336 176.977 325.787 176.887Z" fill="#263238"/>
<path d="M287.851 149.748C287.738 149.748 287.666 143.817 287.69 136.509C287.714 129.2 287.835 123.27 287.948 123.27C288.06 123.27 288.133 129.2 288.109 136.509C288.085 143.817 287.972 149.748 287.851 149.748Z" fill="#263238"/>
<g opacity="0.3">
<path d="M315.674 121.779C316.109 121.763 316.537 121.895 316.888 122.152C317.239 122.41 317.492 122.778 317.608 123.197C317.769 124.059 317.649 124.97 317.874 125.824C318.1 126.678 318.881 127.508 319.744 127.331C320.257 127.162 320.693 126.816 320.976 126.356C322.669 124.065 324.025 121.544 325.005 118.87C325.005 118.935 320.541 123.995 320.541 123.995C320.375 122.715 320.039 121.463 319.542 120.272C319.397 119.885 319.22 119.225 318.849 119.055C318.245 118.773 317.439 119.66 317.036 120.2C316.624 120.746 316.157 121.248 315.642 121.698" fill="black"/>
</g>
<g opacity="0.3">
<path d="M308.398 117.178C308.479 120.011 309.023 122.812 310.01 125.47C310.096 125.74 310.245 125.986 310.445 126.187C310.547 126.293 310.682 126.362 310.828 126.384C310.973 126.406 311.122 126.379 311.251 126.308C311.576 125.764 311.846 125.189 312.057 124.591C312.468 123.439 314.144 123.334 314.144 123.334C313.864 122.033 313.498 120.751 313.048 119.499C312.967 119.292 312.823 119.116 312.636 118.996C312.45 118.876 312.23 118.818 312.008 118.83C311.718 118.927 311.458 119.1 311.257 119.331C311.056 119.562 310.92 119.842 310.864 120.143C310.614 122.206 310.647 123.157 310.34 123.882C309.535 121.674 308.922 119.047 308.407 117.105" fill="black"/>
</g>
<g opacity="0.3">
<path d="M320.759 178.233C320.949 178.096 321.111 177.923 321.234 177.723C321.357 177.523 321.439 177.301 321.475 177.069C321.511 176.837 321.5 176.6 321.444 176.373C321.387 176.145 321.286 175.931 321.145 175.743C320.846 175.377 320.455 175.096 320.012 174.929C319.569 174.762 319.09 174.715 318.623 174.792C317.692 174.954 316.817 175.347 316.077 175.936C315.312 176.492 314.611 177.121 313.805 177.612C311.831 178.829 309.429 179.103 307.109 179.143C304.792 179.047 302.47 179.15 300.171 179.449C297.898 179.893 295.626 181.061 294.53 183.108C294.522 183.067 314.337 181.657 320.759 178.233Z" fill="black"/>
</g>
<path d="M345.642 116.187C345.642 116.187 351.637 120.457 353.087 124.325C354.538 128.193 359.896 154.76 360.767 159.296C361.871 165.001 361.903 172.06 353.692 174.743C350.638 175.734 331.936 174.211 331.936 174.211L332.548 160.924L342.644 161.303C342.644 161.303 342.04 160.408 343.491 159.328L340.267 142.044C340.267 142.044 341.452 123.688 341.597 123.253C341.742 122.818 345.642 116.187 345.642 116.187Z" fill="#38A3A5"/>
<path d="M345.964 116.646C344.19 117.376 342.589 118.471 341.265 119.859C339.94 121.247 338.923 122.898 338.277 124.704C338.321 124.145 338.468 123.598 338.712 123.093C339.781 120.488 341.796 118.383 344.353 117.202C344.852 116.922 345.398 116.734 345.964 116.646Z" fill="#263238"/>
<path d="M349.235 163.995C349.171 163.995 349.034 163.552 348.631 162.931C348.095 162.125 347.395 161.442 346.576 160.925C345.773 160.386 344.864 160.026 343.909 159.869C343.176 159.764 342.708 159.869 342.692 159.781C343.078 159.585 343.514 159.514 343.941 159.579C344.967 159.655 345.956 159.997 346.81 160.57C347.679 161.118 348.394 161.878 348.889 162.778C349.121 163.141 349.242 163.564 349.235 163.995Z" fill="#263238"/>
<path d="M338.39 131.545C338.512 131.891 338.604 132.247 338.664 132.609C338.833 133.414 339.034 134.373 339.284 135.55C339.784 138.04 340.444 141.48 341.145 145.284C341.846 149.087 342.467 152.536 342.894 155.042C343.087 156.234 343.249 157.225 343.369 158.007C343.448 158.367 343.489 158.734 343.49 159.103C343.367 158.757 343.272 158.401 343.208 158.039C343.047 157.233 342.846 156.275 342.596 155.098C342.096 152.608 341.436 149.168 340.734 145.364C340.033 141.561 339.413 138.112 338.986 135.606C338.793 134.414 338.631 133.422 338.511 132.641C338.432 132.281 338.391 131.913 338.39 131.545Z" fill="#263238"/>
<path d="M331.944 174.204C331.912 173.861 331.912 173.516 331.944 173.173C331.944 172.44 331.944 171.497 332.008 170.361C332.081 167.943 332.201 164.648 332.371 160.901V160.699H332.58L334.24 160.764L342.669 161.126H342.725L342.765 161.167C344.02 162.188 344.975 163.53 345.529 165.05C345.678 165.471 345.794 165.902 345.876 166.34C345.914 166.492 345.928 166.65 345.916 166.807C345.868 166.807 345.771 166.171 345.344 165.123C344.743 163.674 343.78 162.403 342.548 161.432L342.652 161.473L334.224 161.183L332.564 161.11L332.774 160.917C332.604 164.656 332.427 167.984 332.282 170.361C332.201 171.497 332.137 172.44 332.089 173.173C332.079 173.521 332.03 173.867 331.944 174.204Z" fill="#263238"/>
<path d="M317.19 158.136L309.382 142.197C309.121 141.667 308.717 141.221 308.216 140.909C307.714 140.597 307.136 140.432 306.545 140.433H286.876C286.709 140.432 286.545 140.475 286.4 140.557C286.255 140.639 286.133 140.757 286.048 140.9C285.963 141.043 285.916 141.206 285.913 141.373C285.91 141.54 285.95 141.704 286.03 141.851L299.325 166.685C299.51 167.026 299.784 167.311 300.117 167.509C300.451 167.708 300.831 167.813 301.219 167.813H321.597L317.19 158.136Z" fill="#455A64"/>
<path d="M286.159 141.972H286.554H287.674H291.815L305.457 141.859C306.088 141.854 306.711 142.003 307.27 142.294C307.786 142.623 308.204 143.085 308.479 143.632C309.051 144.72 309.527 145.856 310.026 146.855L312.637 152.415L314.418 156.146C314.619 156.557 314.788 156.887 314.925 157.153C314.975 157.273 315.04 157.387 315.119 157.491C315.093 157.362 315.05 157.238 314.99 157.121C314.877 156.847 314.724 156.508 314.547 156.089C314.136 155.146 313.564 153.865 312.871 152.302C312.178 150.739 311.259 148.805 310.332 146.718C309.841 145.662 309.382 144.558 308.793 143.422C308.49 142.818 308.027 142.309 307.456 141.948C306.846 141.622 306.165 141.453 305.473 141.456C300.123 141.456 295.312 141.609 291.775 141.682L287.641 141.795L286.513 141.843C286.389 141.868 286.27 141.911 286.159 141.972Z" fill="#263238"/>
<path d="M298.27 145.461C298.176 145.496 298.092 145.551 298.024 145.624C297.956 145.696 297.905 145.783 297.876 145.879C297.847 145.974 297.841 146.074 297.858 146.173C297.874 146.271 297.913 146.364 297.971 146.444C298.08 146.613 298.239 146.742 298.426 146.813C298.613 146.884 298.818 146.893 299.011 146.839C299.141 146.81 299.26 146.746 299.355 146.654C299.45 146.561 299.518 146.444 299.551 146.315C299.564 146.12 299.512 145.927 299.405 145.764C299.297 145.601 299.139 145.477 298.954 145.413C298.726 145.373 298.491 145.389 298.27 145.461Z" fill="white"/>
<path d="M332.339 161.464L327.456 160.989C327.456 160.989 325.24 158.475 324.369 157.717C323.499 156.96 318.519 154.494 318.519 154.494C318.519 154.494 315.933 151.746 315.594 151.787C315.256 151.827 314.192 152.157 314.652 153.519C315.088 154.873 315.66 156.18 316.36 157.419L306.521 158.821C306.214 158.859 305.918 158.965 305.656 159.131C305.395 159.297 305.173 159.518 305.006 159.78C304.789 160.143 304.724 160.521 305.216 160.691C306.996 161.101 308.799 161.408 310.615 161.609L308.681 161.351C308.681 161.351 308.495 163.188 309.785 163.898C310.28 164.119 310.743 164.407 311.162 164.752C311.277 165.573 311.568 166.359 312.017 167.056C312.613 167.677 318.511 169.868 318.511 169.868C318.511 169.868 322.194 170.497 323.975 170.191L331.952 171.408L332.339 161.464Z" fill="#FFBE9D"/>
<path d="M315.409 157.597C316.345 157.661 317.285 157.661 318.221 157.597C319.16 157.655 320.103 157.587 321.025 157.395C320.097 157.235 319.153 157.184 318.213 157.242C317.264 157.191 316.314 157.311 315.409 157.597Z" fill="#EB996E"/>
<path d="M317.254 161.81C315.9 161.495 314.509 161.371 313.121 161.439C311.976 161.439 310.945 161.439 310.195 161.439C309.792 161.411 309.387 161.427 308.987 161.488C309.371 161.628 309.779 161.693 310.187 161.681C310.945 161.737 311.976 161.762 313.121 161.77C315.401 161.778 317.238 161.898 317.254 161.81Z" fill="#EB996E"/>
<path d="M317.641 165.042C317.641 164.937 316.19 165.042 314.417 164.969C312.645 164.897 311.194 164.615 311.194 164.719C312.222 165.118 313.315 165.323 314.417 165.324C315.5 165.434 316.594 165.338 317.641 165.042Z" fill="#EB996E"/>
<path d="M317.479 168.724C317.576 168.724 317.673 168.329 317.697 167.821C317.721 167.313 317.657 166.911 317.56 166.902C317.463 166.894 317.367 167.305 317.343 167.805C317.318 168.305 317.383 168.724 317.479 168.724Z" fill="#EB996E"/>
<path d="M317.842 164.292C317.939 164.292 317.955 163.946 318.084 163.583C318.213 163.221 318.398 162.963 318.334 162.882C318.269 162.802 317.907 163.011 317.754 163.47C317.601 163.93 317.754 164.316 317.842 164.292Z" fill="#EB996E"/>
<path d="M318.446 159.821C318.551 159.821 318.623 159.603 318.712 159.353C318.801 159.104 318.881 158.886 318.809 158.822C318.736 158.757 318.494 158.918 318.382 159.233C318.269 159.547 318.349 159.829 318.446 159.821Z" fill="#EB996E"/>
<path d="M74.658 87.256V94.508L69.856 87.256H68.26V97H69.856V89.734L74.658 97H76.254V87.256H74.658ZM87.7578 92.114C87.7578 89.202 85.5598 87.144 82.7878 87.144C80.0438 87.144 77.8178 89.202 77.8178 92.114C77.8178 95.04 80.0438 97.098 82.7878 97.098C85.5598 97.098 87.7578 95.04 87.7578 92.114ZM79.4558 92.114C79.4558 89.916 80.8558 88.544 82.7878 88.544C84.7198 88.544 86.1198 89.916 86.1198 92.114C86.1198 94.312 84.7198 95.712 82.7878 95.712C80.8558 95.712 79.4558 94.312 79.4558 92.114ZM92.433 92.114C92.433 95.04 94.659 97.084 97.403 97.084C99.433 97.084 101.183 96.076 101.925 94.172H100.007C99.489 95.208 98.565 95.698 97.403 95.698C95.471 95.698 94.071 94.312 94.071 92.114C94.071 89.916 95.471 88.544 97.403 88.544C98.565 88.544 99.489 89.034 100.007 90.07H101.925C101.183 88.166 99.433 87.144 97.403 87.144C94.659 87.144 92.433 89.202 92.433 92.114ZM110.359 97H112.039L108.553 87.256H106.705L103.219 97H104.885L105.585 95.012H109.659L110.359 97ZM109.211 93.71H106.033L107.629 89.188L109.211 93.71ZM113.555 97H115.151V90.336L118.133 97H119.239L122.207 90.336V97H123.803V87.27H122.095L118.693 94.9L115.277 87.27H113.555V97ZM127.497 91.75V88.572H129.261C130.507 88.572 131.067 89.16 131.067 90.168C131.067 91.148 130.507 91.75 129.261 91.75H127.497ZM132.705 90.168C132.705 88.586 131.571 87.27 129.261 87.27H125.901V97H127.497V93.052H129.261C131.795 93.052 132.705 91.554 132.705 90.168ZM140.793 97H142.473L138.987 87.256H137.139L133.653 97H135.319L136.019 95.012H140.093L140.793 97ZM139.645 93.71H136.467L138.063 89.188L139.645 93.71ZM143.988 97H145.584V87.27H143.988V97ZM152.118 87.144C149.374 87.144 147.148 89.202 147.148 92.114C147.148 95.04 149.374 97.084 152.118 97.084C154.736 97.084 156.64 95.166 156.934 92.912V91.666H151.572V92.94H155.226C154.988 94.578 153.882 95.642 152.118 95.642C150.186 95.642 148.786 94.256 148.786 92.114C148.786 89.972 150.186 88.6 152.118 88.6C153.28 88.6 154.204 89.09 154.722 90.07H156.64C155.898 88.166 154.148 87.144 152.118 87.144ZM164.906 87.256V94.508L160.104 87.256H158.508V97H160.104V89.734L164.906 97H166.502V87.256H164.906ZM175.164 94.242C175.164 90.686 170.012 92.058 170.012 89.86C170.012 88.922 170.726 88.474 171.65 88.502C172.658 88.53 173.232 89.132 173.288 89.79H175.052C174.912 88.124 173.596 87.144 171.734 87.144C169.746 87.144 168.388 88.208 168.388 89.916C168.388 93.5 173.554 91.974 173.554 94.326C173.554 95.152 172.924 95.754 171.804 95.754C170.698 95.754 170.138 95.11 170.068 94.312H168.36C168.36 96.034 169.858 97.098 171.804 97.098C173.974 97.098 175.164 95.698 175.164 94.242ZM187.25 97H188.93L185.444 87.256H183.596L180.11 97H181.776L182.476 95.012H186.55L187.25 97ZM186.102 93.71H182.924L184.52 89.188L186.102 93.71ZM195.612 90.182C195.612 91.148 195.052 91.834 193.806 91.834H192.042V88.572H193.806C195.052 88.572 195.612 89.202 195.612 90.182ZM190.446 87.27V97H192.042V93.108H193.26L195.5 97H197.404L194.996 92.968C196.634 92.562 197.25 91.33 197.25 90.182C197.25 88.6 196.116 87.27 193.806 87.27H190.446ZM204.667 87.256H199.291V97H204.667V95.698H200.887V92.716H204.247V91.414H200.887V88.558H204.667V87.256ZM216.836 94.242C216.836 90.686 211.684 92.058 211.684 89.86C211.684 88.922 212.398 88.474 213.322 88.502C214.33 88.53 214.904 89.132 214.96 89.79H216.724C216.584 88.124 215.268 87.144 213.406 87.144C211.418 87.144 210.06 88.208 210.06 89.916C210.06 93.5 215.226 91.974 215.226 94.326C215.226 95.152 214.596 95.754 213.476 95.754C212.37 95.754 211.81 95.11 211.74 94.312H210.032C210.032 96.034 211.53 97.098 213.476 97.098C215.646 97.098 216.836 95.698 216.836 94.242ZM218.187 92.114C218.187 95.04 220.413 97.084 223.157 97.084C225.187 97.084 226.937 96.076 227.679 94.172H225.761C225.243 95.208 224.319 95.698 223.157 95.698C221.225 95.698 219.825 94.312 219.825 92.114C219.825 89.916 221.225 88.544 223.157 88.544C224.319 88.544 225.243 89.034 225.761 90.07H227.679C226.937 88.166 225.187 87.144 223.157 87.144C220.413 87.144 218.187 89.202 218.187 92.114ZM235.721 97H237.317V87.27H235.721V91.442H231.143V87.27H229.547V97H231.143V92.744H235.721V97ZM244.794 87.256H239.418V97H244.794V95.698H241.014V92.716H244.374V91.414H241.014V88.558H244.794V87.256ZM249.938 87.27H246.76V97H249.938C253.06 97 255.104 95.166 255.104 92.17C255.104 89.16 253.06 87.27 249.938 87.27ZM248.356 95.698V88.572H249.938C252.234 88.572 253.466 89.944 253.466 92.17C253.466 94.382 252.234 95.698 249.938 95.698H248.356ZM256.672 93.444C256.672 95.922 258.408 97.098 260.452 97.098C262.482 97.098 264.274 95.922 264.274 93.444V87.27H262.678V93.472C262.678 94.984 261.824 95.698 260.466 95.698C259.122 95.698 258.268 94.984 258.268 93.472V87.27H256.672V93.444ZM266.352 87.27V97H271.238V95.712H267.948V87.27H266.352ZM277.948 87.256H272.572V97H277.948V95.698H274.168V92.716H277.528V91.414H274.168V88.558H277.948V87.256ZM283.092 87.27H279.914V97H283.092C286.214 97 288.258 95.166 288.258 92.17C288.258 89.16 286.214 87.27 283.092 87.27ZM281.51 95.698V88.572H283.092C285.388 88.572 286.62 89.944 286.62 92.17C286.62 94.382 285.388 95.698 283.092 95.698H281.51Z" fill="#012C53"/>
</svg>
