<svg width="55" height="94" viewBox="0 0 55 94" fill="none" xmlns="http://www.w3.org/2000/svg">
<path d="M43.097 0.546997C42.5977 0.846997 42.1043 1.16233 41.617 1.493C26.553 11.707 22.234 32.793 31.971 48.593C26.843 40.272 29.571 29.893 37.05 23.785C46.087 16.411 43.097 0.546997 43.097 0.546997Z" fill="#205072"/>
<path fill-rule="evenodd" clip-rule="evenodd" d="M32.888 9.59201C29.1166 14.9154 26.8908 21.1782 26.4568 27.6877C26.0228 34.1973 27.3976 40.7001 30.429 46.477C31.5693 48.8316 33.2203 50.9022 35.262 52.538C28.3698 46.9303 23.9305 38.8604 22.8842 30.037C21.8378 21.2135 24.2665 12.3291 29.656 5.26501C30.0187 4.79101 30.3917 4.32934 30.775 3.88C31.5982 5.73789 32.3039 7.64565 32.888 9.59201Z" fill="#38A3A5"/>
<path fill-rule="evenodd" clip-rule="evenodd" d="M23.5 16.373C21.6589 22.6315 21.6475 29.2861 23.4672 35.5509C25.2869 41.8156 28.8616 47.4287 33.769 51.727C35.5586 53.4173 37.6992 54.692 40.038 55.46C23.075 49.903 13.553 30.925 18.772 13.073C18.9407 12.4943 19.1227 11.9243 19.318 11.363C20.8237 12.9364 22.2209 14.6103 23.5 16.373Z" fill="#56C596"/>
<path fill-rule="evenodd" clip-rule="evenodd" d="M16.955 24.39C17.468 37.763 25.533 50.023 37.992 54.875C40.2174 55.8688 42.6402 56.3418 45.076 56.258C27.313 56.864 12.388 42.01 11.742 23.08C11.7213 22.4666 11.7157 21.857 11.725 21.251C13.5367 22.1789 15.284 23.2275 16.955 24.39Z" fill="#7BE495"/>
<path d="M12.331 89.299L13.564 87.087C10.1554 84.8246 7.35856 81.755 5.42208 78.1513C3.4856 74.5475 2.46946 70.5211 2.464 66.43C2.4235 65.6026 2.50675 64.7738 2.711 63.971H2.467L0 54.132C0 54.132 4.933 54.132 12.331 49.214C19.729 44.296 19.73 39.378 27.128 39.378C34.526 39.378 34.528 44.296 41.928 49.214C49.328 54.132 54.259 54.132 54.259 54.132L51.792 63.97V66.429C51.7865 70.5201 50.7704 74.5465 48.8339 78.1503C46.8974 81.754 44.1006 84.8236 40.692 87.086L41.925 89.298C37.4934 92.2007 32.3156 93.7568 27.018 93.778C21.7913 93.7424 16.6881 92.1861 12.331 89.299ZM25.648 81.922C25.3586 82.1618 25.1257 82.4626 24.9658 82.8027C24.8059 83.1429 24.723 83.5141 24.723 83.89C24.723 84.2659 24.8059 84.6371 24.9658 84.9773C25.1257 85.3174 25.3586 85.6181 25.648 85.858C27.5711 85.5737 29.417 84.904 31.075 83.889C31.075 83.152 30.828 81.922 30.087 81.677C29.8323 81.4345 29.5319 81.2451 29.2033 81.1197C28.8747 80.9944 28.5245 80.9357 28.173 80.947C27.2392 80.945 26.3385 81.2924 25.648 81.921V81.922ZM34.526 76.266L38.226 82.659C42.5408 79.5663 45.6037 75.0291 46.859 69.871L39.707 67.904V71.348C39.7044 72.0007 39.4433 72.6259 38.981 73.0867C38.5187 73.5475 37.8927 73.8065 37.24 73.807H32.306C31.6534 73.8065 31.0277 73.5474 30.5657 73.0865C30.1037 72.6257 29.8431 72.0005 29.841 71.348V65.448L12.331 60.772C10.606 61.509 9.125 62.249 7.892 62.739C7.60654 63.9498 7.44107 65.1858 7.398 66.429C7.37786 69.638 8.15628 72.8015 9.66314 75.6348C11.17 78.468 13.358 80.8819 16.03 82.659L19.73 76.266H34.526ZM20.469 57.821L46.611 64.708C46.6512 63.9614 46.5678 63.2133 46.364 62.494C41.678 60.527 32.553 56.594 27.128 56.594C24.864 56.7082 22.625 57.1207 20.469 57.821ZM16.769 68.889C16.69 68.4635 16.7419 68.0241 16.918 67.6288C17.094 67.2335 17.3859 66.9009 17.755 66.675C19.5961 67.1098 21.3484 67.8588 22.935 68.889C22.9218 69.6691 22.6052 70.4133 22.0524 70.9639C21.4996 71.5144 20.7541 71.828 19.974 71.838C19.1674 71.838 18.3902 71.5348 17.7967 70.9885C17.2032 70.4423 16.8367 69.6929 16.77 68.889H16.769Z" fill="#205072"/>
</svg>
