<svg width="20" height="24" viewBox="0 0 20 24" fill="none" xmlns="http://www.w3.org/2000/svg">
<path fill-rule="evenodd" clip-rule="evenodd" d="M10 23.5712C10 23.5712 0 20.08 0 13.9285V3.57124L10 0L20 3.57124V13.9285C19.9998 20.0801 10 23.5712 10 23.5712ZM18.5713 4.81628L10 1.78577L1.42871 4.81628V13.6042C1.42871 18.8236 10 21.7857 10 21.7857C10 21.7857 18.5713 18.8236 18.5713 13.6042V4.81628ZM10 20.7143C10 20.7143 2.50012 18.0698 2.50012 13.4096V5.5634L10 2.85761L17.4999 5.5634V13.4096C17.4999 18.0697 10 20.7143 10 20.7143Z" fill="#38A3A5"/>
</svg>
