<svg width="387" height="189" viewBox="0 0 387 189" fill="none" xmlns="http://www.w3.org/2000/svg">
<path d="M374.152 63.2523L290.016 40.7081C283.377 38.9294 276.554 42.8677 274.776 49.5042L255.457 121.604C253.678 128.24 257.619 135.063 264.257 136.841L348.396 159.386C355.034 161.165 361.857 157.227 363.636 150.59L382.954 78.4904C384.732 71.8539 380.792 65.0315 374.154 63.2528L374.152 63.2523ZM306.219 64.3687C311.198 65.7029 314.152 70.8197 312.819 75.7966C311.485 80.7746 306.368 83.7277 301.389 82.3936C296.411 81.0596 293.455 75.9436 294.789 70.9656C296.123 65.9887 301.24 63.0348 306.219 64.3687ZM311.154 130.09L269.086 118.817L293.555 99.6157L303.955 117.623L332.834 97.2607L353.225 141.362L311.154 130.09Z" fill="#B0DDDE"/>
<path d="M96.9816 40.7096L12.8453 63.2538C6.20702 65.0326 2.26688 71.855 4.04512 78.4915L23.3641 150.591C25.1424 157.228 31.9659 161.166 38.6041 159.387L122.743 136.842C129.381 135.064 133.321 128.241 131.543 121.605L112.223 49.5053C110.445 42.8688 103.621 38.9305 96.9832 40.7092L96.9816 40.7096ZM38.7078 75.643C43.6871 74.3088 48.8039 77.263 50.1375 82.2399C51.4713 87.2179 48.5168 92.3337 43.5376 93.6679C38.5593 95.0018 33.4417 92.0489 32.1079 87.071C30.7743 82.094 33.7296 76.9769 38.7078 75.643ZM75.8423 130.091L33.7741 141.364L45.3641 112.5L63.3747 122.895L78.2034 90.8207L117.913 118.819L75.8423 130.091Z" fill="#B0DDDE"/>
<path d="M257.365 0H129.293C119.188 0 110.996 8.19223 110.996 18.297V128.076C110.996 138.18 119.188 146.373 129.293 146.373H257.369C267.474 146.373 275.666 138.18 275.666 128.076L275.664 18.297C275.664 8.19223 267.472 0 257.367 0H257.365ZM161.309 27.4447C168.888 27.4447 175.031 33.5891 175.031 41.167C175.031 48.7464 168.888 54.8893 161.309 54.8893C153.731 54.8893 147.586 48.7464 147.586 41.167C147.586 33.5891 153.731 27.4447 161.309 27.4447ZM193.328 118.929H129.292L156.736 82.3371L178.36 103.96L211.626 64.0402L257.368 118.929H193.328Z" fill="#C1E4E4"/>
<path d="M198.426 183.946C219.22 183.946 236.065 167.101 236.065 146.307C236.065 125.512 219.22 108.667 198.426 108.667C177.631 108.667 160.786 125.512 160.786 146.307C160.786 167.101 177.631 183.946 198.426 183.946Z" fill="#C1E4E4" stroke="white" stroke-width="10"/>
</svg>
