<svg width="77" height="67" viewBox="0 0 77 67" fill="none" xmlns="http://www.w3.org/2000/svg">
<path d="M47.4038 4.93881C45.5579 1.87401 42.2416 0 38.6639 0C35.0862 0 31.7699 1.87401 29.924 4.93881L1.81385 50.8488C0.551397 52.9277 0.0700994 55.3875 0.455848 57.7888C0.841626 60.1895 2.07011 62.3753 3.92012 63.953C5.77028 65.5313 8.12189 66.3997 10.5538 66.4021H66.7725C69.2042 66.3997 71.556 65.5314 73.4062 63.953C75.2563 62.3753 76.4847 60.1895 76.8704 57.7888C77.2562 55.3875 76.7749 52.9277 75.5124 50.8488L47.4038 4.93881ZM71.0177 58.447C70.6032 59.2096 69.9893 59.8444 69.2417 60.2846C68.494 60.7247 67.6405 60.9523 66.7729 60.9445H10.5542C8.85645 60.8597 7.32459 59.8982 6.50943 58.4064C5.69427 56.9146 5.71278 55.1063 6.55899 53.6313L34.4903 7.64944C35.3771 6.1935 36.959 5.30486 38.6641 5.30486C40.3691 5.30486 41.951 6.19348 42.8379 7.64944L70.948 53.6313C71.3851 54.3563 71.6216 55.1834 71.6342 56.0297C71.6467 56.8759 71.4347 57.7102 71.0191 58.4471L71.0177 58.447Z" fill="#EB7676"/>
<path d="M38.6636 43.2871C39.3701 43.2775 40.0455 42.9927 40.5454 42.4928C41.0453 41.9936 41.3301 41.3181 41.3391 40.6116V24.5592C41.3391 23.6031 40.8291 22.7199 40.0014 22.2421C39.1737 21.7644 38.1537 21.7644 37.326 22.2421C36.4983 22.7199 35.9883 23.6031 35.9883 24.5592V40.6116C35.9972 41.3181 36.2821 41.9935 36.7819 42.4928C37.2818 42.9927 37.9572 43.2775 38.6638 43.2871H38.6636Z" fill="#EB7676"/>
<path d="M42.2302 49.5289C42.2302 51.4991 40.6334 53.0959 38.6632 53.0959C36.693 53.0959 35.0962 51.4991 35.0962 49.5289C35.0962 47.5588 36.693 45.9619 38.6632 45.9619C40.6334 45.9619 42.2302 47.5588 42.2302 49.5289Z" fill="#EB7676"/>
</svg>
