<svg width="369" height="30" viewBox="0 0 369 30" fill="none" xmlns="http://www.w3.org/2000/svg">
<path d="M5.645 13.625V4.318H10.811C14.46 4.318 16.1 6.04 16.1 8.992C16.1 11.862 14.46 13.625 10.811 13.625H5.645ZM20.897 8.992C20.897 4.359 17.576 0.504998 10.811 0.504998H0.970996V29H5.645V17.438H10.811C18.232 17.438 20.897 13.051 20.897 8.992ZM25.3548 29H30.0288V0.504998H25.3548V29ZM51.2943 9.033C51.2943 11.862 49.6543 13.871 46.0053 13.871H40.8393V4.318H46.0053C49.6543 4.318 51.2943 6.163 51.2943 9.033ZM36.1653 0.504998V29H40.8393V17.602H44.4063L50.9663 29H56.5423L49.4903 17.192C54.2873 16.003 56.0913 12.395 56.0913 9.033C56.0913 4.4 52.7703 0.504998 46.0053 0.504998H36.1653ZM81.2996 29H86.2196L76.0106 0.463998H70.5986L60.3896 29H65.2686L67.3186 23.178H79.2496L81.2996 29ZM77.9376 19.365H68.6306L73.3046 6.122L77.9376 19.365ZM89.1825 4.318H96.8085V29H101.482V4.318H109.067V0.504998H89.1825V4.318ZM129.545 0.463998H113.801V29H129.545V25.187H118.475V16.454H128.315V12.641H118.475V4.277H129.545V0.463998ZM154.531 20.923C154.531 10.509 139.443 14.527 139.443 8.09C139.443 5.343 141.534 4.031 144.24 4.113C147.192 4.195 148.873 5.958 149.037 7.885H154.203C153.793 3.006 149.939 0.135998 144.486 0.135998C138.664 0.135998 134.687 3.252 134.687 8.254C134.687 18.75 149.816 14.281 149.816 21.169C149.816 23.588 147.971 25.351 144.691 25.351C141.452 25.351 139.812 23.465 139.607 21.128H134.605C134.605 26.171 138.992 29.287 144.691 29.287C151.046 29.287 154.531 25.187 154.531 20.923ZM198.249 14.691C198.249 6.163 191.812 0.135998 183.694 0.135998C175.658 0.135998 169.139 6.163 169.139 14.691C169.139 23.26 175.658 29.287 183.694 29.287C191.812 29.287 198.249 23.26 198.249 14.691ZM173.936 14.691C173.936 8.254 178.036 4.236 183.694 4.236C189.352 4.236 193.452 8.254 193.452 14.691C193.452 21.128 189.352 25.228 183.694 25.228C178.036 25.228 173.936 21.128 173.936 14.691ZM202.848 29H207.522V16.536H216.952V12.723H207.522V4.318H219.617V0.504998H202.848V29ZM247.596 0.135998C239.56 0.135998 233.041 6.163 233.041 14.691C233.041 23.26 239.56 29.246 247.596 29.246C255.263 29.246 260.839 23.629 261.7 17.028V13.379H245.997V17.11H256.698C256.001 21.907 252.762 25.023 247.596 25.023C241.938 25.023 237.838 20.964 237.838 14.691C237.838 8.418 241.938 4.4 247.596 4.4C250.999 4.4 253.705 5.835 255.222 8.705H260.839C258.666 3.129 253.541 0.135998 247.596 0.135998ZM282.054 0.463998H266.31V29H282.054V25.187H270.984V16.454H280.824V12.641H270.984V4.277H282.054V0.463998ZM287.811 29H292.485V9.484L301.218 29H304.457L313.149 9.484V29H317.823V0.504998H312.821L302.858 22.85L292.854 0.504998H287.811V29ZM323.966 29H328.64V0.504998H323.966V29ZM353.514 0.463998V21.702L339.451 0.463998H334.777V29H339.451V7.721L353.514 29H358.188V0.463998H353.514ZM364.325 29H368.999V0.504998H364.325V29Z" fill="#205072"/>
</svg>
