<svg width="13" height="18" viewBox="0 0 13 18" fill="none" xmlns="http://www.w3.org/2000/svg">
<path d="M4.50019 17.6658C4.08599 17.6658 3.75015 17.3301 3.75015 16.9157V9.41597H1.50015V16.9157C1.50015 17.3299 1.16445 17.6658 0.750105 17.6658C0.335903 17.6658 6.10352e-05 17.3301 6.10352e-05 16.9157L0.000193201 9.41597C0.000193201 8.58888 0.673196 7.91602 1.50015 7.91602H3.75014C4.57723 7.91602 5.2501 8.58902 5.2501 9.41597V16.9157C5.2501 17.3301 4.91439 17.6658 4.50019 17.6658H4.50019Z" fill="white"/>
<path d="M8.25007 10.1658C7.83587 10.1658 7.50002 9.83007 7.50002 9.41573V1.91597H5.25003V9.41573C5.25003 9.82994 4.91432 10.1658 4.49998 10.1658C4.08578 10.1658 3.74994 9.83007 3.74994 9.41573L3.75007 1.91597C3.75007 1.08888 4.42307 0.416016 5.25002 0.416016H7.50002C8.32711 0.416016 8.99997 1.08902 8.99997 1.91597V9.41573C8.99997 9.82994 8.66427 10.1656 8.25006 10.1656L8.25007 10.1658Z" fill="white"/>
<path d="M12 17.6659C11.5858 17.6659 11.25 17.3302 11.25 16.9158L11.2501 6.41597H9.00009V16.9158C9.00009 17.33 8.66439 17.6659 8.25004 17.6659C7.83584 17.6659 7.5 17.3302 7.5 16.9158L7.50013 6.41597C7.50013 5.58888 8.17314 4.91602 9.00008 4.91602H11.2501C12.0772 4.91602 12.75 5.58902 12.75 6.41597V16.9158C12.75 17.3302 12.4143 17.6659 12 17.6659H12Z" fill="white"/>
</svg>