<svg width="18" height="18" viewBox="0 0 18 18" fill="none" xmlns="http://www.w3.org/2000/svg">
<path fill-rule="evenodd" clip-rule="evenodd" d="M8.80691 4.00017H3.66669C2.69438 4.00017 1.76161 4.3865 1.07395 5.07411C0.386288 5.76177 0 6.6945 0 7.66684C0 8.63919 0.386326 9.57191 1.07395 10.2596C1.76161 10.9472 2.69434 11.3335 3.66669 11.3335H4.14601L5.44898 16.5449C5.66297 17.4003 6.43097 18 7.31239 18H7.31268C7.9237 18 8.50065 17.7186 8.87669 17.2371C9.25274 16.7553 9.38576 16.1277 9.23771 15.5347L8.18742 11.3331H8.82106L14.9994 14.9101C15.2056 15.0294 15.46 15.0299 15.6664 14.9108C15.8726 14.7918 16 14.5716 16 14.3332V9.48058L17.544 8.96553C17.8164 8.87491 18 8.62029 18 8.33323V6.99989C18 6.71283 17.8164 6.45821 17.544 6.36758L16 5.85254V0.666625C16 0.423619 15.868 0.199958 15.655 0.0827005C15.4422 -0.034412 15.1827 -0.0266749 14.9774 0.102939L8.80691 4.00017ZM5.52057 11.3335L6.74259 16.2219C6.80792 16.4835 7.04289 16.6669 7.31223 16.6669H7.31253C7.51283 16.6669 7.70225 16.5746 7.82549 16.4166C7.94885 16.2588 7.9926 16.0529 7.94394 15.8585L6.81254 11.3336L5.52057 11.3335ZM14.6665 13.1771V1.87655L9.66649 5.03415V10.2825L14.6665 13.1772V13.1771ZM4.33313 10.0002H8.33315V5.33351H4.33313V10.0002ZM2.99979 5.43065C2.63178 5.54032 2.29308 5.74032 2.01647 6.01667C1.57883 6.45431 1.33311 7.0476 1.33311 7.66665C1.33311 8.2857 1.5788 8.879 2.01647 9.31664C2.29311 9.59297 2.63179 9.79298 2.99979 9.90266V5.43065ZM15.9999 7.25835V8.07503L16.6665 7.85271V7.48069L15.9999 7.25835Z" fill="white"/>
</svg>