<svg width="30" height="27" viewBox="0 0 30 27" fill="none" xmlns="http://www.w3.org/2000/svg">
<g filter="url(#filter0_d_8501_800)">
<rect x="3" y="1" width="24" height="21" rx="4" fill="white"/>
</g>
<path d="M13 8.99805H14V14.998H13V8.99805Z" fill="#38A3A5"/>
<path d="M16.001 8.99805H17.001V14.998H16.001V8.99805Z" fill="#38A3A5"/>
<path d="M8.99902 6.00098V7.00098H9.99902V17.001C9.99902 17.2662 10.1044 17.5205 10.2919 17.7081C10.4795 17.8956 10.7338 18.001 10.999 18.001H18.999C19.2642 18.001 19.5186 17.8956 19.7061 17.7081C19.8937 17.5205 19.999 17.2662 19.999 17.001V7.00098H20.999V6.00098H8.99902ZM10.999 17.001V7.00098H18.999V17.001H10.999Z" fill="#38A3A5"/>
<path d="M13 3.99902H17V4.99902H13V3.99902Z" fill="#38A3A5"/>
<defs>
<filter id="filter0_d_8501_800" x="0" y="0" width="30" height="27" filterUnits="userSpaceOnUse" color-interpolation-filters="sRGB">
<feFlood flood-opacity="0" result="BackgroundImageFix"/>
<feColorMatrix in="SourceAlpha" type="matrix" values="0 0 0 0 0 0 0 0 0 0 0 0 0 0 0 0 0 0 127 0" result="hardAlpha"/>
<feOffset dy="2"/>
<feGaussianBlur stdDeviation="1.5"/>
<feComposite in2="hardAlpha" operator="out"/>
<feColorMatrix type="matrix" values="0 0 0 0 0 0 0 0 0 0 0 0 0 0 0 0 0 0 0.25 0"/>
<feBlend mode="normal" in2="BackgroundImageFix" result="effect1_dropShadow_8501_800"/>
<feBlend mode="normal" in="SourceGraphic" in2="effect1_dropShadow_8501_800" result="shape"/>
</filter>
</defs>
</svg>
