<svg width="25" height="22" viewBox="0 0 25 22" fill="none" xmlns="http://www.w3.org/2000/svg">
<path d="M15.0465 1.91505C14.4687 0.955731 13.4306 0.369141 12.3108 0.369141C11.1909 0.369141 10.1529 0.955731 9.57507 1.91505L0.776212 16.2855C0.381046 16.9362 0.230393 17.7062 0.351137 18.4578C0.471891 19.2093 0.856425 19.8935 1.4355 20.3873C2.01463 20.8813 2.75071 21.1532 3.51192 21.1539H21.1092C21.8703 21.1532 22.6065 20.8814 23.1856 20.3873C23.7647 19.8935 24.1492 19.2093 24.27 18.4578C24.3907 17.7062 24.24 16.9362 23.8449 16.2855L15.0465 1.91505ZM22.438 18.6639C22.3082 18.9026 22.1161 19.1013 21.882 19.2391C21.648 19.3768 21.3809 19.448 21.1093 19.4456H3.51206C2.98064 19.4191 2.50115 19.1181 2.24599 18.6511C1.99083 18.1842 1.99663 17.6182 2.26151 17.1565L11.0044 2.76352C11.282 2.30779 11.7771 2.02964 12.3108 2.02964C12.8445 2.02964 13.3397 2.30779 13.6173 2.76352L22.4161 17.1565C22.553 17.3834 22.627 17.6423 22.6309 17.9072C22.6349 18.1721 22.5685 18.4332 22.4384 18.6639L22.438 18.6639Z" fill="#38A3A5"/>
<path d="M12.3106 13.9183C12.5317 13.9153 12.7431 13.8261 12.8996 13.6697C13.0561 13.5134 13.1452 13.302 13.148 13.0808V8.05618C13.148 7.75691 12.9884 7.48045 12.7293 7.33091C12.4702 7.18136 12.1509 7.18136 11.8919 7.33091C11.6328 7.48045 11.4731 7.75691 11.4731 8.05618V13.0808C11.4759 13.302 11.5651 13.5134 11.7216 13.6697C11.878 13.8261 12.0894 13.9153 12.3106 13.9183Z" fill="#38A3A5"/>
<path d="M13.4269 15.8724C13.4269 16.4891 12.9271 16.9889 12.3104 16.9889C11.6937 16.9889 11.1938 16.4891 11.1938 15.8724C11.1938 15.2557 11.6937 14.7559 12.3104 14.7559C12.9271 14.7559 13.4269 15.2557 13.4269 15.8724Z" fill="#38A3A5"/>
</svg>
