<svg width="23" height="23" viewBox="0 0 23 23" fill="none" xmlns="http://www.w3.org/2000/svg">
<mask id="path-1-inside-1_1665_1078" fill="white">
<path fill-rule="evenodd" clip-rule="evenodd" d="M11.6133 7.59214C13.6383 7.59214 15.2798 5.95043 15.2798 3.92547C15.2798 1.9005 13.6383 0.258789 11.6133 0.258789C9.58815 0.258789 7.94663 1.9005 7.94663 3.92547C7.94663 5.95043 9.58819 7.59214 11.6133 7.59214ZM20.743 6.24658C20.743 4.77071 19.5448 3.57345 18.0664 3.57345C16.5891 3.57345 15.392 4.77038 15.3923 6.24658C15.3923 7.72374 16.5894 8.92215 18.0664 8.92215C19.545 8.92215 20.743 7.72355 20.743 6.24658ZM22.5804 12.1304C22.8651 10.948 21.2975 9.99107 19.0785 9.99107L17.9206 9.99096C17.9631 10.0382 18.0047 10.0852 18.0428 10.1315C18.5253 10.742 18.6882 11.447 18.5135 12.1641L16.7418 19.4959C16.9869 19.575 17.2394 19.6192 17.493 19.6192H18.5852C19.7925 19.6192 21.0029 18.6608 21.2872 17.4805L22.5804 12.1304ZM13 9.05871C16.0437 9.05871 18.192 10.372 17.8003 11.9927L16.0291 19.3255C15.6373 20.945 13.9786 22.2589 12.3242 22.2589H10.8252C9.17083 22.2589 7.52243 20.945 7.1429 19.3255L5.42357 11.9927C5.0437 10.372 7.20389 9.05871 10.2459 9.05871H13ZM5.16092 3.57345C6.63789 3.57345 7.83462 4.77071 7.83462 6.24658C7.83462 7.72355 6.63789 8.92215 5.16092 8.92215C3.68209 8.92215 2.48612 7.72374 2.48612 6.24658C2.48612 4.77038 3.68209 3.57345 5.16092 3.57345ZM6.42858 19.496V19.4928L4.71001 12.1605C4.54265 11.4424 4.70796 10.7418 5.19234 10.1317C5.21739 10.0987 5.24412 10.069 5.27101 10.0391C5.28518 10.0233 5.29939 10.0075 5.31343 9.99117H4.16241C1.9438 9.99117 0.368303 10.9481 0.645374 12.1305L1.89938 17.4806C2.17498 18.6609 3.38065 19.6193 4.5865 19.6193H5.67911C5.93265 19.6193 6.1836 19.5751 6.42858 19.496Z"/>
</mask>
<path d="M15.3923 6.24658H16.6923V6.24626L15.3923 6.24658ZM19.0785 9.99107L19.0784 11.2911H19.0785V9.99107ZM22.5804 12.1304L23.844 12.4358L23.8443 12.4347L22.5804 12.1304ZM17.9206 9.99096L17.9207 8.69096L14.9989 8.69067L16.9548 10.8612L17.9206 9.99096ZM18.0428 10.1315L19.0627 9.3254L19.0548 9.31541L19.0468 9.30559L18.0428 10.1315ZM18.5135 12.1641L17.2505 11.8564L17.2499 11.8587L18.5135 12.1641ZM16.7418 19.4959L15.4781 19.1905L15.1949 20.3628L16.3426 20.7331L16.7418 19.4959ZM21.2872 17.4805L20.0236 17.175L20.0234 17.176L21.2872 17.4805ZM17.8003 11.9927L16.5367 11.6873L16.5367 11.6875L17.8003 11.9927ZM16.0291 19.3255L17.2927 19.6312L17.2928 19.6307L16.0291 19.3255ZM7.1429 19.3255L8.40861 19.0288L8.40857 19.0287L7.1429 19.3255ZM5.42357 11.9927L4.15788 12.2894L4.1579 12.2894L5.42357 11.9927ZM6.42858 19.4928H7.72858V19.3425L7.69428 19.1962L6.42858 19.4928ZM6.42858 19.496L6.82806 20.7331L7.72858 20.4423V19.496H6.42858ZM4.71001 12.1605L3.44394 12.4556L3.44431 12.4572L4.71001 12.1605ZM5.19234 10.1317L6.21047 10.94L6.21921 10.929L6.22771 10.9178L5.19234 10.1317ZM5.27101 10.0391L6.23744 10.9086L6.23744 10.9086L5.27101 10.0391ZM5.31343 9.99117L6.2999 10.8379L8.14238 8.69117H5.31343V9.99117ZM0.645374 12.1305L-0.620338 12.4271L-0.620323 12.4271L0.645374 12.1305ZM1.89938 17.4806L3.16533 17.185L3.16508 17.1839L1.89938 17.4806ZM13.9798 3.92547C13.9798 5.23255 12.9202 6.29214 11.6133 6.29214V8.89214C14.3563 8.89214 16.5798 6.66832 16.5798 3.92547H13.9798ZM11.6133 1.55879C12.9202 1.55879 13.9798 2.61838 13.9798 3.92547H16.5798C16.5798 1.18261 14.3563 -1.04121 11.6133 -1.04121V1.55879ZM9.24663 3.92547C9.24663 2.61842 10.3062 1.55879 11.6133 1.55879V-1.04121C8.87013 -1.04121 6.64663 1.18257 6.64663 3.92547H9.24663ZM11.6133 6.29214C10.3062 6.29214 9.24663 5.2325 9.24663 3.92547H6.64663C6.64663 6.66837 8.87019 8.89214 11.6133 8.89214V6.29214ZM18.0664 4.87345C18.8283 4.87345 19.443 5.4901 19.443 6.24658H22.043C22.043 4.05133 20.2614 2.27345 18.0664 2.27345V4.87345ZM16.6923 6.24626C16.6921 5.4888 17.3065 4.87345 18.0664 4.87345V2.27345C15.8716 2.27345 14.0918 4.05196 14.0923 6.24691L16.6923 6.24626ZM18.0664 7.62215C17.3083 7.62215 16.6923 7.00668 16.6923 6.24658H14.0923C14.0923 8.44081 15.8705 10.2222 18.0664 10.2222V7.62215ZM19.443 6.24658C19.443 7.00542 18.8272 7.62215 18.0664 7.62215V10.2222C20.2628 10.2222 22.043 8.44169 22.043 6.24658H19.443ZM19.0785 11.2911C20.027 11.2911 20.7188 11.4996 21.0907 11.7268C21.4635 11.9545 21.2749 11.9988 21.3165 11.826L23.8443 12.4347C24.1706 11.0797 23.3405 10.0543 22.4459 9.50791C21.5505 8.961 20.349 8.69107 19.0785 8.69107V11.2911ZM17.9205 11.291L19.0784 11.2911L19.0786 8.69107L17.9207 8.69096L17.9205 11.291ZM19.0468 9.30559C18.9897 9.23617 18.9323 9.17173 18.8863 9.12071L16.9548 10.8612C16.9939 10.9046 17.0198 10.9342 17.0388 10.9573L19.0468 9.30559ZM19.7766 12.4717C20.0516 11.3427 19.7783 10.2308 19.0627 9.3254L17.0229 10.9375C17.2723 11.2532 17.3248 11.5514 17.2505 11.8564L19.7766 12.4717ZM18.0054 19.8012L19.7772 12.4694L17.2499 11.8587L15.4781 19.1905L18.0054 19.8012ZM17.493 18.3192C17.3908 18.3192 17.2732 18.3014 17.141 18.2587L16.3426 20.7331C16.7006 20.8486 17.0879 20.9192 17.493 20.9192V18.3192ZM18.5852 18.3192H17.493V20.9192H18.5852V18.3192ZM20.0234 17.176C19.8784 17.7775 19.1865 18.3192 18.5852 18.3192V20.9192C20.3985 20.9192 22.1273 19.544 22.551 17.7849L20.0234 17.176ZM21.3168 11.825L20.0236 17.175L22.5508 17.7859L23.844 12.4358L21.3168 11.825ZM19.0639 12.2981C19.4444 10.7238 18.4961 9.49928 17.3664 8.80876C16.2359 8.11777 14.6829 7.75871 13 7.75871V10.3587C14.3608 10.3587 15.4037 10.6563 16.0104 11.0272C16.6179 11.3985 16.5479 11.6409 16.5367 11.6873L19.0639 12.2981ZM17.2928 19.6307L19.064 12.2979L16.5367 11.6875L14.7655 19.0202L17.2928 19.6307ZM12.3242 23.5589C14.5855 23.5589 16.7613 21.8275 17.2927 19.6312L14.7656 19.0198C14.5133 20.0624 13.3717 20.9589 12.3242 20.9589V23.5589ZM10.8252 23.5589H12.3242V20.9589H10.8252V23.5589ZM5.87719 19.6221C6.39323 21.8241 8.56169 23.5589 10.8252 23.5589V20.9589C9.77996 20.9589 8.65164 20.0659 8.40861 19.0288L5.87719 19.6221ZM4.1579 12.2894L5.87722 19.6222L8.40857 19.0287L6.68925 11.6959L4.1579 12.2894ZM10.2459 7.75871C8.56333 7.75871 7.0092 8.11795 5.87593 8.80729C4.74634 9.4944 3.78861 10.714 4.15788 12.2894L6.68927 11.696C6.67866 11.6507 6.61109 11.4033 7.22712 11.0286C7.83947 10.6561 8.88642 10.3587 10.2459 10.3587V7.75871ZM13 7.75871H10.2459V10.3587H13V7.75871ZM9.13462 6.24658C9.13462 4.05273 7.35584 2.27345 5.16092 2.27345V4.87345C5.91993 4.87345 6.53462 5.4887 6.53462 6.24658H9.13462ZM5.16092 10.2222C7.35704 10.2222 9.13462 8.44034 9.13462 6.24658H6.53462C6.53462 7.00676 5.91874 7.62215 5.16092 7.62215V10.2222ZM1.18612 6.24658C1.18612 8.4407 2.9631 10.2222 5.16092 10.2222V7.62215C4.40107 7.62215 3.78612 7.00679 3.78612 6.24658H1.18612ZM5.16092 2.27345C2.96434 2.27345 1.18612 4.05218 1.18612 6.24658H3.78612C3.78612 5.48858 4.39983 4.87345 5.16092 4.87345V2.27345ZM5.12858 19.4928V19.496H7.72858V19.4928H5.12858ZM3.44431 12.4572L5.16289 19.7895L7.69428 19.1962L5.97571 11.8639L3.44431 12.4572ZM4.17421 9.32333C3.4576 10.2259 3.18139 11.329 3.44394 12.4556L5.97609 11.8655C5.90391 11.5558 5.95832 11.2576 6.21047 10.94L4.17421 9.32333ZM4.30458 9.16957C4.28284 9.19375 4.21993 9.2626 4.15696 9.34553L6.22771 10.9178C6.21942 10.9287 6.21429 10.9346 6.21574 10.9329C6.21644 10.9321 6.21825 10.93 6.22196 10.9258C6.22594 10.9213 6.23033 10.9165 6.23744 10.9086L4.30458 9.16957ZM4.32696 9.14449C4.32442 9.14744 4.32033 9.15207 4.30458 9.16958L6.23744 10.9086C6.25003 10.8946 6.27437 10.8676 6.2999 10.8379L4.32696 9.14449ZM4.16241 11.2912H5.31343V8.69117H4.16241V11.2912ZM1.91109 11.8339C1.95182 12.0077 1.76385 11.959 2.14338 11.7282C2.51945 11.4996 3.21443 11.2912 4.16241 11.2912V8.69117C2.89177 8.69117 1.6897 8.96123 0.792641 9.50664C-0.100961 10.05 -0.938142 11.0709 -0.620338 12.4271L1.91109 11.8339ZM3.16508 17.1839L1.91107 11.8338L-0.620323 12.4271L0.633682 17.7772L3.16508 17.1839ZM4.5865 18.3193C3.98775 18.3193 3.30425 17.7799 3.16533 17.185L0.633432 17.7762C1.04571 19.5418 2.77354 20.9193 4.5865 20.9193V18.3193ZM5.67911 18.3193H4.5865V20.9193H5.67911V18.3193ZM6.02911 18.2589C5.89638 18.3017 5.78042 18.3193 5.67911 18.3193V20.9193C6.08487 20.9193 6.47083 20.8484 6.82806 20.7331L6.02911 18.2589Z" fill="white" mask="url(#path-1-inside-1_1665_1078)"/>
</svg>