<svg width="18" height="20" viewBox="0 0 18 20" fill="none" xmlns="http://www.w3.org/2000/svg">
<path d="M9.01087 0.00019381C8.64265 0.00019381 8.361 0.272201 8.361 0.627838V2.28046H1.47286C0.649709 2.28046 0 2.92895 0 3.70296V13.5145C0 14.3095 0.671447 14.937 1.47286 14.937H5.0686L2.98908 18.6818C2.81577 18.9955 2.94571 19.3721 3.24896 19.5395C3.3573 19.5814 3.44388 19.6231 3.55221 19.6231C3.79048 19.6231 4.00716 19.4976 4.11535 19.2884L6.5197 14.9579L8.36095 14.9582V19.3724C8.36095 19.728 8.64259 20 9.01081 20C9.37904 20 9.66068 19.728 9.66068 19.3724V14.9582H11.4801L13.8845 19.2887C13.9928 19.4979 14.2311 19.6234 14.4476 19.6234C14.556 19.6234 14.6643 19.6026 14.7509 19.5398C15.0757 19.3724 15.1841 18.9959 15.0108 18.682L12.9313 14.9373H16.527C17.3501 14.9373 17.9998 14.2888 17.9998 13.5148L18 3.7238C18 2.92879 17.3286 2.3013 16.5271 2.3013H9.66066V0.627644C9.66066 0.272019 9.37902 0 9.01079 0L9.01087 0.00019381ZM16.7221 3.72399V13.5356C16.7221 13.6402 16.6355 13.703 16.5488 13.703H1.47288C1.36454 13.703 1.29957 13.6193 1.29957 13.5356V3.72399C1.29957 3.61936 1.38615 3.55661 1.47288 3.55661H16.5488C16.657 3.53574 16.722 3.61936 16.722 3.72399H16.7221Z" fill="white"/>
</svg>
