<svg width="22" height="24" viewBox="0 0 22 24" fill="none" xmlns="http://www.w3.org/2000/svg">
<path d="M11.0133 0.000232572C10.5632 0.000232572 10.219 0.326642 10.219 0.753405V2.73655H1.80016C0.794089 2.73655 0 3.51474 0 4.44355V16.2174C0 17.1715 0.820658 17.9244 1.80016 17.9244H6.19495L3.65332 22.4181C3.4415 22.7946 3.60032 23.2466 3.97095 23.4474C4.10336 23.4977 4.20918 23.5478 4.34159 23.5478C4.63281 23.5478 4.89764 23.3972 5.02987 23.1461L7.96852 17.9495L10.2189 17.9498V23.2468C10.2189 23.6736 10.5632 24 11.0132 24C11.4633 24 11.8075 23.6736 11.8075 23.2468V17.9498H14.0313L16.9699 23.1464C17.1024 23.3975 17.3936 23.5481 17.6582 23.5481C17.7906 23.5481 17.923 23.5231 18.0289 23.4478C18.4259 23.2469 18.5583 22.7951 18.3465 22.4185L15.8049 17.9248H20.1997C21.2057 17.9248 21.9998 17.1466 21.9998 16.2178L22 4.46856C22 3.51455 21.1793 2.76156 20.1998 2.76156H11.8075V0.753173C11.8075 0.326423 11.4632 0 11.0132 0L11.0133 0.000232572ZM20.4381 4.46879V16.2427C20.4381 16.3682 20.3323 16.4435 20.2263 16.4435H1.80019C1.66778 16.4435 1.58837 16.3432 1.58837 16.2427V4.46879C1.58837 4.34323 1.69418 4.26793 1.80019 4.26793H20.2263C20.3586 4.24289 20.438 4.34323 20.438 4.46879H20.4381Z" fill="#38A3A5"/>
<path d="M6 9.5L9.5 13L15.5 7" stroke="#38A3A5" stroke-width="1.5" stroke-linecap="round" stroke-linejoin="round"/>
</svg>
