<svg width="23" height="23" viewBox="0 0 23 23" fill="none" xmlns="http://www.w3.org/2000/svg">
<mask id="path-1-inside-1_1453_38" fill="white">
<path fill-rule="evenodd" clip-rule="evenodd" d="M20.4025 2.05799L19.0124 3.45234L19.0126 3.45222C21.0047 5.45027 22.252 8.18698 22.252 11.2363C22.252 17.435 17.1589 22.4389 10.9401 22.2651C5.20205 22.1043 0.416506 17.3044 0.25627 11.5489C0.0959113 5.73265 4.42243 0.897802 10.0089 0.276622C10.6671 0.202752 11.2474 0.715352 11.2474 1.37994C11.2474 1.93162 10.8403 2.40509 10.2947 2.4659C5.89029 2.94367 2.4474 6.69672 2.4474 11.2405C2.4474 16.6878 7.39319 20.9969 13.0145 19.8936C16.4617 19.216 19.229 16.4186 19.883 12.9566C20.4719 9.85485 19.4153 6.97941 17.4535 5.01599L16.4011 6.07153C16.124 6.34954 15.6519 6.15406 15.6519 5.75878V1.74957C15.6519 1.50632 15.8511 1.30651 16.0936 1.30651H20.0907C20.4848 1.30651 20.6797 1.77999 20.4025 2.05799ZM10.1514 11.2629V4.64281L10.1515 4.64277C10.1515 4.03466 10.6452 3.53945 11.2514 3.53945C11.8577 3.53945 12.3514 4.03466 12.3514 4.64277V10.1596H14.5514C15.1577 10.1596 15.6514 10.6548 15.6514 11.2629C15.6514 11.871 15.1577 12.3662 14.5514 12.3662H11.2514C10.6451 12.3662 10.1514 11.871 10.1514 11.2629Z"/>
</mask>
<path fill-rule="evenodd" clip-rule="evenodd" d="M20.4025 2.05799L19.0124 3.45234L19.0126 3.45222C21.0047 5.45027 22.252 8.18698 22.252 11.2363C22.252 17.435 17.1589 22.4389 10.9401 22.2651C5.20205 22.1043 0.416506 17.3044 0.25627 11.5489C0.0959113 5.73265 4.42243 0.897802 10.0089 0.276622C10.6671 0.202752 11.2474 0.715352 11.2474 1.37994C11.2474 1.93162 10.8403 2.40509 10.2947 2.4659C5.89029 2.94367 2.4474 6.69672 2.4474 11.2405C2.4474 16.6878 7.39319 20.9969 13.0145 19.8936C16.4617 19.216 19.229 16.4186 19.883 12.9566C20.4719 9.85485 19.4153 6.97941 17.4535 5.01599L16.4011 6.07153C16.124 6.34954 15.6519 6.15406 15.6519 5.75878V1.74957C15.6519 1.50632 15.8511 1.30651 16.0936 1.30651H20.0907C20.4848 1.30651 20.6797 1.77999 20.4025 2.05799ZM10.1514 11.2629V4.64281L10.1515 4.64277C10.1515 4.03466 10.6452 3.53945 11.2514 3.53945C11.8577 3.53945 12.3514 4.03466 12.3514 4.64277V10.1596H14.5514C15.1577 10.1596 15.6514 10.6548 15.6514 11.2629C15.6514 11.871 15.1577 12.3662 14.5514 12.3662H11.2514C10.6451 12.3662 10.1514 11.871 10.1514 11.2629Z" fill="#38A3A5"/>
<path d="M19.0124 3.45234L18.8708 3.31113L19.1024 3.63094L19.0124 3.45234ZM20.4025 2.05799L20.5442 2.1992V2.1992L20.4025 2.05799ZM19.0126 3.45222L19.1543 3.31101L19.052 3.20842L18.9226 3.27362L19.0126 3.45222ZM10.9401 22.2651L10.9345 22.4651L10.9345 22.4651L10.9401 22.2651ZM0.25627 11.5489L0.056346 11.5544L0.0563475 11.5545L0.25627 11.5489ZM10.0089 0.276622L10.031 0.475397L10.0312 0.475374L10.0089 0.276622ZM10.2947 2.4659L10.3163 2.66474L10.3168 2.66467L10.2947 2.4659ZM13.0145 19.8936L13.053 20.0898L13.053 20.0898L13.0145 19.8936ZM19.883 12.9566L19.6865 12.9193L19.6864 12.9195L19.883 12.9566ZM17.4535 5.01599L17.5949 4.87463L17.4533 4.73288L17.3118 4.87478L17.4535 5.01599ZM16.4011 6.07153L16.5427 6.21274L16.4011 6.07153ZM10.1514 4.64281L10.0108 4.50055L9.95142 4.55927V4.64281H10.1514ZM10.1515 4.64277L10.292 4.78504L10.3515 4.72632V4.64277H10.1515ZM12.3514 10.1596H12.1514V10.3596H12.3514V10.1596ZM19.154 3.59355L20.5442 2.1992L20.2609 1.91678L18.8708 3.31113L19.154 3.59355ZM18.9226 3.27362L18.9224 3.27374L19.1024 3.63094L19.1026 3.63082L18.9226 3.27362ZM22.452 11.2363C22.452 8.13087 21.1814 5.34425 19.1543 3.31101L18.871 3.59343C20.828 5.5563 22.052 8.24309 22.052 11.2363H22.452ZM10.9345 22.4651C17.2668 22.642 22.452 17.5467 22.452 11.2363H22.052C22.052 17.3233 17.0509 22.2358 10.9457 22.0652L10.9345 22.4651ZM0.0563475 11.5545C0.219522 17.4155 5.08985 22.3012 10.9345 22.4651L10.9457 22.0652C5.31425 21.9074 0.61349 17.1932 0.456193 11.5433L0.0563475 11.5545ZM9.98675 0.0778471C4.2977 0.710439 -0.1069 5.63343 0.056346 11.5544L0.456194 11.5434C0.298723 5.83186 4.54717 1.08516 10.031 0.475397L9.98675 0.0778471ZM11.4474 1.37994C11.4474 0.594807 10.7621 -0.00916272 9.98655 0.0778696L10.0312 0.475374C10.5721 0.414668 11.0474 0.835897 11.0474 1.37994H11.4474ZM10.3168 2.66467C10.9683 2.59207 11.4474 2.0289 11.4474 1.37994H11.0474C11.0474 1.83434 10.7124 2.21811 10.2725 2.26713L10.3168 2.66467ZM2.6474 11.2405C2.6474 6.79959 6.01261 3.13158 10.3163 2.66474L10.2731 2.26707C5.76796 2.75577 2.2474 6.59386 2.2474 11.2405H2.6474ZM12.9759 19.6973C7.48133 20.7758 2.6474 16.5651 2.6474 11.2405H2.2474C2.2474 16.8106 7.30504 21.218 13.053 20.0898L12.9759 19.6973ZM19.6864 12.9195C19.0476 16.3016 16.3425 19.0356 12.9759 19.6973L13.053 20.0898C16.581 19.3964 19.4104 16.5356 20.0795 12.9937L19.6864 12.9195ZM17.312 5.15736C19.2299 7.07682 20.2624 9.88637 19.6865 12.9193L20.0794 12.9939C20.6815 9.82332 19.6007 6.88201 17.5949 4.87463L17.312 5.15736ZM16.5427 6.21274L17.5951 5.1572L17.3118 4.87478L16.2595 5.93033L16.5427 6.21274ZM15.4519 5.75878C15.4519 6.33071 16.1385 6.61822 16.5427 6.21274L16.2595 5.93033C16.1094 6.08085 15.8519 5.97742 15.8519 5.75878H15.4519ZM15.4519 1.74957V5.75878H15.8519V1.74957H15.4519ZM16.0936 1.10651C15.7401 1.10651 15.4519 1.39644 15.4519 1.74957H15.8519C15.8519 1.6162 15.9621 1.50651 16.0936 1.50651V1.10651ZM20.0907 1.10651H16.0936V1.50651H20.0907V1.10651ZM20.5442 2.1992C20.9464 1.79573 20.6637 1.10651 20.0907 1.10651V1.50651C20.3059 1.50651 20.413 1.76425 20.2609 1.91678L20.5442 2.1992ZM9.95142 4.64281V11.2629H10.3514V4.64281H9.95142ZM10.0109 4.50051L10.0108 4.50055L10.292 4.78508L10.292 4.78504L10.0109 4.50051ZM11.2514 3.33945C10.5341 3.33945 9.95146 3.92477 9.95146 4.64277H10.3515C10.3515 4.14454 10.7562 3.73945 11.2514 3.73945V3.33945ZM12.5514 4.64277C12.5514 3.92477 11.9687 3.33945 11.2514 3.33945V3.73945C11.7467 3.73945 12.1514 4.14454 12.1514 4.64277H12.5514ZM12.5514 10.1596V4.64277H12.1514V10.1596H12.5514ZM14.5514 9.95956H12.3514V10.3596H14.5514V9.95956ZM15.8514 11.2629C15.8514 10.5449 15.2687 9.95956 14.5514 9.95956V10.3596C15.0466 10.3596 15.4514 10.7646 15.4514 11.2629H15.8514ZM14.5514 12.5662C15.2687 12.5662 15.8514 11.9809 15.8514 11.2629H15.4514C15.4514 11.7611 15.0466 12.1662 14.5514 12.1662V12.5662ZM11.2514 12.5662H14.5514V12.1662H11.2514V12.5662ZM9.95142 11.2629C9.95142 11.9809 10.5341 12.5662 11.2514 12.5662V12.1662C10.7562 12.1662 10.3514 11.7611 10.3514 11.2629H9.95142Z" fill="white" mask="url(#path-1-inside-1_1453_38)"/>
</svg>
