<svg width="22" height="22" viewBox="0 0 22 22" fill="none" xmlns="http://www.w3.org/2000/svg">
<path d="M6.4481 20.7703C4.74363 21.6665 3.2489 20.5815 3.57448 18.6827L4.44774 13.5926C4.44705 13.6184 0.761374 10.0245 0.761374 10.0245C-0.617521 8.68034 -0.0475425 6.92342 1.85893 6.64663L6.96942 5.90378C6.94508 5.91108 9.22402 1.29542 9.22402 1.29542C10.0761 -0.431316 11.923 -0.432295 12.7759 1.29542L15.0614 5.92639C15.0468 5.90518 20.141 6.64663 20.141 6.64663C22.0465 6.92346 22.6182 8.67971 21.2386 10.0245L17.5407 13.6291C17.5564 13.609 18.4255 18.6827 18.4255 18.6827C18.751 20.5804 17.2573 21.6669 15.5519 20.7703L10.9807 18.3672C11.0051 18.3759 6.4482 20.7703 6.4482 20.7703H6.4481ZM5.54489 18.9921L10.0909 16.6022C10.6279 16.3198 11.3697 16.3188 11.9087 16.6022L16.4551 18.9921L15.5868 13.93C15.4842 13.3322 15.7123 12.6261 16.1484 12.2012L19.8264 8.61597L14.7433 7.87729C14.1431 7.79 13.5425 7.35494 13.2729 6.80894L10.9999 2.20307L8.72653 6.80894C8.45805 7.35286 7.85883 7.78969 7.25611 7.87729L2.17304 8.61597L5.85104 12.2012C6.28541 12.6244 6.51563 13.3297 6.41269 13.93L5.54489 18.9921Z" fill="#38A3A5"/>
</svg>
