<svg width="20" height="19" viewBox="0 0 20 19" fill="none" xmlns="http://www.w3.org/2000/svg">
<path d="M16.1999 1.52937H13.7999L13.8 0.929165C13.8 0.569206 13.56 0.329105 13.1999 0.329105C12.8398 0.329105 12.5999 0.56908 12.5999 0.929165V1.52923L6.59997 1.52936V0.929162C6.59997 0.569203 6.35999 0.329102 5.99991 0.329102C5.63995 0.329102 5.39985 0.569077 5.39985 0.929162V1.52922H2.99981C1.31984 1.52936 0 2.8492 0 4.52918V15.329C0 17.009 1.31987 18.3291 2.99995 18.3291H16.1997C17.8797 18.3291 19.1996 17.009 19.1996 15.329V4.52918C19.1996 2.8492 17.8797 1.52936 16.1997 1.52936L16.1999 1.52937ZM17.9998 15.3292C17.9998 16.2892 17.1598 17.1292 16.1998 17.1292H2.99996C2.03994 17.1292 1.19988 16.2892 1.19988 15.3292V6.94153H17.9996L17.9998 15.3292ZM17.9998 5.74155H1.20009V4.52925C1.20009 3.56923 2.04015 2.72917 3.00017 2.72917H5.4002V3.32923C5.4002 3.68919 5.64017 3.92929 6.00026 3.92929C6.36022 3.92929 6.60032 3.68932 6.60032 3.32923V2.72917H12.6002V3.32923C12.6002 3.68919 12.8402 3.92929 13.2003 3.92929C13.5604 3.92929 13.8003 3.68932 13.8003 3.32923V2.72917H16.2004C17.1604 2.72917 18.0005 3.56923 18.0005 4.52925V5.74155H17.9998Z" fill="white"/>
</svg>