<svg width="30" height="27" viewBox="0 0 30 27" fill="none" xmlns="http://www.w3.org/2000/svg">
<g filter="url(#filter0_d_9309_1491)">
<rect x="3" y="1" width="24" height="21" rx="4" fill="white"/>
</g>
<path fill-rule="evenodd" clip-rule="evenodd" d="M15.0002 8.22267C14.7057 8.22727 14.4135 8.27404 14.1324 8.36156C14.2624 8.59026 14.3317 8.84848 14.3335 9.11156C14.3335 9.97067 13.637 10.6671 12.7779 10.6671C12.5149 10.6653 12.2566 10.596 12.0279 10.466C11.6579 11.7494 12.1506 13.1255 13.251 13.8824C14.3515 14.6393 15.8128 14.6071 16.8789 13.8025C17.945 12.9978 18.3765 11.6013 17.9503 10.3355C17.5241 9.06971 16.3358 8.21864 15.0002 8.22267ZM22.9033 10.9278C21.3969 7.98861 18.4147 6 15 6C11.5853 6 8.60221 7.99 7.09665 10.9281C6.96778 11.183 6.96778 11.484 7.09665 11.7389C8.60304 14.6781 11.5853 16.6667 15 16.6667C18.4147 16.6667 21.3978 14.6767 22.9033 11.7386C23.0322 11.4837 23.0322 11.1827 22.9033 10.9278ZM14.9998 15.332C12.2595 15.332 9.74729 13.8043 8.39062 11.332C9.74729 8.85981 12.2592 7.33203 14.9998 7.33203C17.7403 7.33203 20.2523 8.85981 21.609 11.332C20.2526 13.8043 17.7403 15.332 14.9998 15.332Z" fill="#38A3A5"/>
<defs>
<filter id="filter0_d_9309_1491" x="0" y="0" width="30" height="27" filterUnits="userSpaceOnUse" color-interpolation-filters="sRGB">
<feFlood flood-opacity="0" result="BackgroundImageFix"/>
<feColorMatrix in="SourceAlpha" type="matrix" values="0 0 0 0 0 0 0 0 0 0 0 0 0 0 0 0 0 0 127 0" result="hardAlpha"/>
<feOffset dy="2"/>
<feGaussianBlur stdDeviation="1.5"/>
<feComposite in2="hardAlpha" operator="out"/>
<feColorMatrix type="matrix" values="0 0 0 0 0 0 0 0 0 0 0 0 0 0 0 0 0 0 0.25 0"/>
<feBlend mode="normal" in2="BackgroundImageFix" result="effect1_dropShadow_9309_1491"/>
<feBlend mode="normal" in="SourceGraphic" in2="effect1_dropShadow_9309_1491" result="shape"/>
</filter>
</defs>
</svg>
